<svg width="102" height="91" viewBox="0 0 102 91" fill="none" xmlns="http://www.w3.org/2000/svg">
<path d="M7.77438e-05 6.45537C-0.0231238 2.11668 5.14993 -0.700494 11.3314 0.15212L95.72 11.7919C98.9247 12.234 101.328 14.9999 101.168 17.9714L98.2282 72.5654C98.0788 75.3405 95.4839 77.9513 92.3572 78.4163L11.2196 90.4829C5.36561 91.3535 0.441009 88.9096 0.419982 84.9775L7.77438e-05 6.45537Z" fill="white"/>
<path d="M47.8748 26.8545L47.6677 36.0402L47.0551 36.0236L47.2603 26.8175L47.8748 26.8545Z" fill="#7E916F"/>
<path d="M47.3677 35.7968L47.3624 36.0317L47.3561 36.2665L34.9157 35.9367L34.9232 35.4459L47.3677 35.7968Z" fill="#1375EB"/>
<path d="M70.397 28.2738L70.4154 28.3204L70.4803 28.483C70.506 28.4723 70.5363 28.4544 70.5601 28.4245C70.586 28.3919 70.5948 28.3576 70.5958 28.3312L70.292 36.658L69.7758 36.644L70.0776 28.3003L70.0895 28.2362C70.0971 28.2145 70.1084 28.1925 70.1251 28.1714C70.154 28.135 70.1928 28.1117 70.2294 28.0953L70.2277 28.0937C70.2312 28.0921 70.2357 28.0915 70.2392 28.09C70.2418 28.089 70.2438 28.087 70.2464 28.086L70.2472 28.0875C70.2703 28.0782 70.292 28.0696 70.3128 28.0643L70.397 28.2738Z" fill="#F3801D"/>
<path d="M70.0421 36.435L70.0266 36.8664L70.0197 36.8662L70.0352 36.4348L70.0421 36.435Z" fill="#7EB426"/>
<path d="M47.5846 35.8733L47.5867 35.8749L47.3668 36.0358L47.1467 36.1961L47.1416 36.192L47.5816 35.8716C47.5825 35.8724 47.5839 35.8727 47.5846 35.8733Z" fill="#91A080"/>
<path d="M79.6447 37.094L70.0272 36.867L70.0411 36.4348L79.6604 36.6788L79.6447 37.094Z" fill="#75783E"/>
<path d="M47.0914 48.3491L47.0809 48.8119L34.7163 49.0398L34.7236 48.5566L47.0914 48.3491Z" fill="#138495"/>
<path d="M47.2878 53.0546L47.1881 57.5238L46.5822 57.554L46.6816 53.0751L47.2878 53.0546Z" fill="#00983A"/>
<path d="M47.568 26.836L47.3624 36.0317L34.9194 35.6913L35.0267 28.6406C35.1311 28.1449 35.3384 27.7352 35.6481 27.4119C36.4097 26.6142 37.4981 26.2562 38.9053 26.3349C41.8358 26.4994 44.7231 26.6665 47.568 26.836Z" fill="#0066DA"/>
<path d="M47.568 26.836L70.2283 28.2014C70.2721 28.2041 70.3142 28.2179 70.3487 28.2409L70.397 28.2738C70.3828 28.2774 70.3702 28.2815 70.3603 28.2861C70.3451 28.2919 70.3373 28.3018 70.3368 28.3158L70.034 36.6508C70.0322 36.6507 70.03 36.6506 70.0274 36.6506L47.3668 36.0358C47.3658 36.035 47.3645 36.0334 47.3624 36.0317L47.568 26.836Z" fill="#FBBC04"/>
<path d="M70.397 28.2738L79.6528 36.8864L70.034 36.6508L70.3368 28.3158C70.3373 28.3018 70.3451 28.2919 70.3603 28.2861C70.3702 28.2815 70.3828 28.2774 70.397 28.2738Z" fill="#EA4335"/>
<path d="M34.9194 35.6913L47.3624 36.0317C47.3645 36.0334 47.3658 36.035 47.3668 36.0358L47.0862 48.5806L34.72 48.7983L34.9194 35.6913Z" fill="#2684FC"/>
<path d="M79.6528 36.8864L79.7086 36.9239L79.0015 53.8618C78.7449 54.8742 78.1084 55.5511 77.086 55.894C76.7196 56.0174 76.1819 56.0963 75.4706 56.1304C70.7527 56.3594 65.803 56.6001 60.6049 56.8533C59.8329 56.891 59.0449 56.9347 58.2408 56.9845C58.1963 56.9874 58.1581 57.002 58.1261 57.0282C55.3995 59.2514 52.6149 61.5324 49.7704 63.8728C49.3301 64.2356 48.8347 64.4568 48.2114 64.4336C47.6278 64.4121 47.2003 64.2159 46.9301 63.8442C46.8162 63.6862 46.7631 63.3865 46.771 62.9451C46.8043 61.1532 46.8425 59.3512 46.8855 57.5392L46.985 53.0649L52.8186 48.5225C52.8436 48.503 52.8731 48.4874 52.9055 48.4765C52.9379 48.4657 52.9725 48.4597 53.0073 48.4591L69.5079 48.1708C69.5368 48.1703 69.5648 48.1603 69.5858 48.1431C69.6068 48.1258 69.6191 48.1028 69.6199 48.0789L70.0274 36.6506C70.03 36.6506 70.0322 36.6507 70.034 36.6508L79.6528 36.8864Z" fill="#00AC47"/>
<path d="M47.0862 48.5806L46.985 53.0649L46.8855 57.5392C44.3989 57.6741 41.8896 57.8027 39.3577 57.925C38.289 57.9767 37.5151 57.9535 37.0408 57.8549C35.7022 57.5784 34.8907 56.8555 34.6152 55.6852L34.72 48.7983L47.0862 48.5806Z" fill="#00832D"/>
</svg>
