<svg width="42" height="42" viewBox="0 0 42 42" fill="none" xmlns="http://www.w3.org/2000/svg">
<path d="M10.4825 2.835C8.90583 4.37607 7.68965 6.2469 6.92116 8.31335C6.15268 10.3798 5.85091 12.5907 6.0375 14.7875C6.65 22.4875 13.93 28.77 20.5275 28.77C26.6525 28.77 29.0675 23.415 28.4725 19.775C28.254 18.44 27.6797 17.1886 26.81 16.1525C27.9125 16.7475 28.98 17.5 29.9775 18.4275C32.6375 20.895 34.2475 24.08 34.4925 27.3525C35.07 34.58 29.715 42 20.755 42C17.7975 42 14.665 41.2475 12.04 40.005C4.935 36.645 0 29.4 0 21C0 13.2475 4.2175 6.475 10.4825 2.835ZM21.245 0C24.2025 0 27.335 0.7525 29.96 1.995C33.5628 3.69467 36.6079 6.38403 38.7397 9.74916C40.8716 13.1143 42.0024 17.0164 42 21C42 28.7525 37.7825 35.525 31.5175 39.165C33.0942 37.6239 34.3103 35.7531 35.0788 33.6866C35.8473 31.6202 36.1491 29.4093 35.9625 27.2125C35.35 19.5125 28.07 13.23 21.4725 13.23C15.3475 13.23 12.9325 18.585 13.5275 22.225C13.7511 23.5618 14.3315 24.8133 15.2075 25.8475C14.0585 25.2281 12.9939 24.4635 12.04 23.5725C9.38 21.105 7.77 17.92 7.5075 14.6475C6.93 7.42 12.285 0 21.245 0Z" fill="url(#paint0_linear_3102_953)"/>
<defs>
<linearGradient id="paint0_linear_3102_953" x1="21" y1="0" x2="21" y2="42" gradientUnits="userSpaceOnUse">
<stop stop-color="#035A69"/>
<stop offset="1" stop-color="#4F46E5"/>
</linearGradient>
</defs>
</svg>
