<svg width="112" height="18" viewBox="0 0 112 18" fill="none" xmlns="http://www.w3.org/2000/svg">
<path d="M-0.000367165 17.328V0.288002H4.87163L9.21563 12.696L13.5356 0.288002H18.4076V17.328H14.7596V6.288L10.7516 17.28H7.63163L3.64763 6.288V17.328H-0.000367165ZM26.8382 17.616C25.5262 17.616 24.3822 17.344 23.4062 16.8C22.4462 16.24 21.6942 15.456 21.1502 14.448C20.6222 13.44 20.3582 12.256 20.3582 10.896C20.3582 9.536 20.6222 8.36 21.1502 7.368C21.6942 6.36 22.4462 5.576 23.4062 5.016C24.3662 4.456 25.5022 4.176 26.8142 4.176C28.0942 4.176 29.2062 4.456 30.1502 5.016C31.0942 5.576 31.8222 6.376 32.3342 7.416C32.8622 8.456 33.1262 9.696 33.1262 11.136V11.856H24.0782C24.1262 12.88 24.3982 13.64 24.8942 14.136C25.4062 14.632 26.0782 14.88 26.9102 14.88C27.5182 14.88 28.0222 14.752 28.4222 14.496C28.8382 14.24 29.1342 13.848 29.3102 13.32L32.9342 13.536C32.5982 14.816 31.8862 15.816 30.7982 16.536C29.7102 17.256 28.3902 17.616 26.8382 17.616ZM24.0782 9.648H29.4302C29.3822 8.704 29.1182 8 28.6382 7.536C28.1742 7.072 27.5662 6.84 26.8142 6.84C26.0622 6.84 25.4382 7.088 24.9422 7.584C24.4622 8.064 24.1742 8.752 24.0782 9.648ZM40.6551 17.616C39.3431 17.616 38.1991 17.344 37.2231 16.8C36.2631 16.24 35.5111 15.456 34.9671 14.448C34.4391 13.44 34.1751 12.256 34.1751 10.896C34.1751 9.536 34.4391 8.36 34.9671 7.368C35.5111 6.36 36.2631 5.576 37.2231 5.016C38.1831 4.456 39.3191 4.176 40.6311 4.176C41.9111 4.176 43.0231 4.456 43.9671 5.016C44.9111 5.576 45.6391 6.376 46.1511 7.416C46.6791 8.456 46.9431 9.696 46.9431 11.136V11.856H37.8951C37.9431 12.88 38.2151 13.64 38.7111 14.136C39.2231 14.632 39.8951 14.88 40.7271 14.88C41.3351 14.88 41.8391 14.752 42.2391 14.496C42.6551 14.24 42.9511 13.848 43.1271 13.32L46.7511 13.536C46.4151 14.816 45.7031 15.816 44.6151 16.536C43.5271 17.256 42.2071 17.616 40.6551 17.616ZM37.8951 9.648H43.2471C43.1991 8.704 42.9351 8 42.4551 7.536C41.9911 7.072 41.3831 6.84 40.6311 6.84C39.8791 6.84 39.2551 7.088 38.7591 7.584C38.2791 8.064 37.9911 8.752 37.8951 9.648ZM53.6175 17.328C52.2895 17.328 51.3135 17.024 50.6895 16.416C50.0655 15.792 49.7535 14.808 49.7535 13.464V1.44H53.3535V13.032C53.3535 13.656 53.4815 14.08 53.7375 14.304C54.0095 14.528 54.4095 14.64 54.9375 14.64H56.7375V17.328H53.6175ZM47.6895 7.152V4.464H56.7375V7.152H47.6895Z" fill="#035A69"/>
<path d="M58.5718 17.328V0.288002H63.4438L67.7878 12.696L72.1078 0.288002H76.9798V17.328H73.3318V6.288L69.3238 17.28H66.2038L62.2198 6.288V17.328H58.5718ZM79.5326 17.328V4.464H83.1326V17.328H79.5326ZM79.4606 2.88V1.43051e-06H83.1806V2.88H79.4606ZM85.9667 17.328V4.464H89.2067L89.3507 8.232L88.8947 8.112C89.0227 7.152 89.2787 6.384 89.6627 5.808C90.0627 5.232 90.5587 4.816 91.1507 4.56C91.7427 4.304 92.3907 4.176 93.0947 4.176C94.0227 4.176 94.8067 4.376 95.4467 4.776C96.1027 5.176 96.5987 5.744 96.9347 6.48C97.2867 7.2 97.4627 8.056 97.4627 9.048V17.328H93.8627V10.248C93.8627 9.56 93.8067 8.976 93.6947 8.496C93.5827 8.016 93.3827 7.656 93.0947 7.416C92.8067 7.16 92.4067 7.032 91.8947 7.032C91.1427 7.032 90.5667 7.312 90.1667 7.872C89.7667 8.416 89.5667 9.208 89.5667 10.248V17.328H85.9667ZM104.438 17.616C103.35 17.616 102.406 17.344 101.606 16.8C100.822 16.24 100.214 15.464 99.7819 14.472C99.3659 13.464 99.1579 12.272 99.1579 10.896C99.1579 9.52 99.3739 8.336 99.8059 7.344C100.238 6.336 100.846 5.56 101.63 5.016C102.43 4.456 103.366 4.176 104.438 4.176C105.35 4.176 106.134 4.368 106.79 4.752C107.462 5.12 107.966 5.632 108.302 6.288V0.288002H111.902V17.328H108.47L108.398 15.432C108.046 16.12 107.518 16.656 106.814 17.04C106.126 17.424 105.334 17.616 104.438 17.616ZM105.614 14.856C106.19 14.856 106.678 14.704 107.078 14.4C107.478 14.096 107.782 13.656 107.99 13.08C108.198 12.488 108.302 11.76 108.302 10.896C108.302 10.016 108.198 9.288 107.99 8.712C107.782 8.12 107.478 7.68 107.078 7.392C106.678 7.088 106.19 6.936 105.614 6.936C104.766 6.936 104.094 7.296 103.598 8.016C103.102 8.72 102.854 9.68 102.854 10.896C102.854 12.096 103.102 13.056 103.598 13.776C104.11 14.496 104.782 14.856 105.614 14.856Z" fill="#4F46E5"/>
</svg>
