<svg width="220" height="183" viewBox="0 0 220 183" fill="none" xmlns="http://www.w3.org/2000/svg">
<path fill-rule="evenodd" clip-rule="evenodd" d="M140.123 181.261C187.186 151.036 213.332 115.855 218.561 75.7171C226.705 13.2359 170.83 -17.3454 142.517 10.1296C114.205 37.6046 131.173 72.4859 151.673 82.0234C172.173 91.5609 184.711 88.2359 182.523 100.98C180.336 113.723 151.173 149.042 125.548 165.492C124.642 166.265 124.063 167.354 123.931 168.539C123.799 169.723 124.122 170.913 124.836 171.867L131.173 180.111C133.923 183.686 136.561 183.548 140.123 181.267M16.211 181.261C63.2735 151.036 89.4193 115.855 94.6485 75.7171C102.798 13.2359 46.9235 -17.3454 18.611 10.1296C-9.70151 37.6046 7.26724 72.4859 27.7735 82.0234C48.2797 91.5609 60.811 88.2359 58.6235 100.98C56.436 113.723 27.2672 149.042 1.64224 165.492C0.73642 166.266 0.159241 167.356 0.0280609 168.54C-0.103119 169.724 0.221512 170.914 0.935974 171.867L7.26723 180.111C10.0172 183.686 12.6547 183.548 16.211 181.267" fill="#035A69" fill-opacity="0.05"/>
</svg>
