<svg width="24" height="24" viewBox="0 0 24 24" fill="none" xmlns="http://www.w3.org/2000/svg">
<path d="M11.9992 7.2162C13.4639 7.2162 14.4519 7.84886 15.0153 8.37753L17.2166 6.2282C15.8646 4.97153 14.1053 4.2002 11.9992 4.2002C8.94858 4.2002 6.31392 5.95086 5.03125 8.49886L7.55325 10.4575C8.18592 8.57686 9.93658 7.2162 11.9992 7.2162Z" fill="#EA4335"/>
<path d="M19.4875 12.1738C19.4875 11.5324 19.4355 11.0644 19.3228 10.5791H11.9995V13.4738H16.2982C16.2115 14.1931 15.7435 15.2764 14.7035 16.0044L17.1648 17.9111C18.6382 16.5504 19.4875 14.5484 19.4875 12.1738Z" fill="#4285F4"/>
<path d="M7.56189 13.543C7.39722 13.0577 7.30189 12.5377 7.30189 12.0004C7.30189 11.463 7.39722 10.943 7.55322 10.4577L5.03122 8.49902C4.50255 9.55636 4.19922 10.7437 4.19922 12.0004C4.19922 13.257 4.50255 14.4444 5.03122 15.5017L7.56189 13.543Z" fill="#FBBC05"/>
<path d="M11.9994 19.8003C14.1054 19.8003 15.8734 19.107 17.1647 17.911L14.7034 16.0043C14.0447 16.4636 13.1607 16.7843 11.9994 16.7843C9.93671 16.7843 8.18604 15.4236 7.56204 13.543L5.04004 15.5016C6.32271 18.0496 8.94871 19.8003 11.9994 19.8003Z" fill="#34A853"/>
</svg>
