<svg width="24" height="24" viewBox="0 0 24 24" fill="none" xmlns="http://www.w3.org/2000/svg">
<g clip-path="url(#clip0_2436_32390)">
<path d="M9.04006 19.9632C9.24247 19.8996 9.41131 19.7581 9.50943 19.57C9.60755 19.3818 9.62691 19.1624 9.56326 18.96C9.49961 18.7576 9.35816 18.5888 9.17002 18.4906C8.98188 18.3925 8.76247 18.3732 8.56006 18.4368L9.04006 19.9632ZM3.20326 15.2272L2.42886 15.0224L2.02246 16.5712L2.79686 16.7744L3.20326 15.2272ZM14.4001 23.2V24H16.0001V23.2H14.4001ZM14.5009 15.5008L14.4145 14.704C14.2641 14.7201 14.1214 14.7785 14.0029 14.8724C13.8844 14.9663 13.7949 15.0919 13.7448 15.2346C13.6947 15.3772 13.6861 15.5312 13.72 15.6786C13.7538 15.8259 13.8287 15.9607 13.9361 16.0672L14.5009 15.5008ZM20.0001 9.45922H20.8001V9.45762L20.0001 9.45922ZM18.6673 6.24962L17.9217 5.96162C17.8659 6.10587 17.8531 6.2632 17.885 6.41456C17.9168 6.56591 17.9918 6.7048 18.1009 6.81442L18.6673 6.24962ZM18.5873 3.02242L19.3169 2.69602C19.2691 2.58966 19.1987 2.49504 19.1105 2.41876C19.0223 2.34248 18.9186 2.28639 18.8065 2.25442L18.5873 3.02242ZM15.1105 4.28962L14.9089 5.06402C15.0163 5.09208 15.1284 5.09746 15.238 5.07983C15.3477 5.06221 15.4524 5.02194 15.5457 4.96162L15.1105 4.28962ZM8.88966 4.28962L8.45446 4.96162C8.54769 5.02194 8.65245 5.06221 8.76208 5.07983C8.87172 5.09746 8.98382 5.09208 9.09126 5.06402L8.88966 4.28962ZM5.41286 3.02402L5.19366 2.25602C5.08125 2.28778 4.97717 2.34378 4.88872 2.42007C4.80026 2.49636 4.72959 2.59109 4.68166 2.69762L5.41286 3.02402ZM5.33286 6.25122L5.89926 6.81602C6.00868 6.70626 6.08386 6.56709 6.11567 6.41541C6.14749 6.26374 6.13456 6.10608 6.07846 5.96162L5.33286 6.25122ZM4.00006 9.48802H4.80006V9.48482L4.00006 9.48802ZM9.50086 15.5008L10.0641 16.0688C10.1706 15.9628 10.2452 15.829 10.2792 15.6826C10.3132 15.5362 10.3053 15.3832 10.2564 15.2411C10.2075 15.099 10.1195 14.9735 10.0026 14.8791C9.88565 14.7847 9.74449 14.7251 9.59526 14.7072L9.50086 15.5008ZM8.80006 17.6H9.60006L9.59846 17.5408L8.80006 17.6ZM8.00006 23.2V24H9.60006V23.2H8.00006ZM8.56006 18.4368C7.59526 18.7408 6.98246 18.7072 6.57606 18.5728C6.17446 18.44 5.86566 18.1728 5.56966 17.7888C5.41536 17.5815 5.27119 17.3669 5.13766 17.1456C5.00166 16.9232 4.84646 16.6624 4.68966 16.4304C4.38406 15.9808 3.93286 15.4176 3.20326 15.2256L2.79686 16.7744C2.92486 16.8064 3.09126 16.9264 3.36486 17.328C3.49606 17.5232 3.62086 17.7312 3.77766 17.9872C3.92806 18.2304 4.10086 18.4992 4.30086 18.7616C4.70566 19.2896 5.25766 19.8224 6.07686 20.0928C6.89286 20.3616 7.86246 20.3328 9.04006 19.9632L8.56006 18.4368ZM16.0001 17.5008C16.0001 16.992 15.9777 16.528 15.8337 16.096C15.6801 15.6352 15.4145 15.28 15.0641 14.9328L13.9361 16.0688C14.1841 16.3136 14.2689 16.4608 14.3153 16.6016C14.3713 16.7696 14.4001 17.008 14.4001 17.5008H16.0001ZM14.5857 16.296C16.0305 16.1408 17.6065 15.776 18.8209 14.7248C20.0689 13.6448 20.8001 11.9568 20.8001 9.45922L19.2001 9.46082C19.2001 11.6352 18.5761 12.8208 17.7729 13.5152C16.9345 14.2416 15.7601 14.56 14.4145 14.704L14.5857 16.296ZM20.8001 9.45762C20.796 8.04232 20.2323 6.68448 19.2321 5.68322L18.1009 6.81442C18.8017 7.51842 19.1969 8.46722 19.2001 9.46082L20.8001 9.45762ZM19.4129 6.53762C19.6529 5.92322 19.7649 5.26722 19.7489 4.60642L18.1489 4.64642C18.1614 5.09453 18.0842 5.54062 17.9217 5.95842L19.4129 6.53762ZM19.7489 4.60642C19.7335 3.94669 19.5866 3.29827 19.3169 2.69602L17.8561 3.34722C18.0401 3.75682 18.1377 4.19842 18.1489 4.64642L19.7489 4.60642ZM18.5873 3.02242C18.8065 2.25282 18.8065 2.25122 18.8049 2.25122H18.8001L18.7937 2.24802L18.7457 2.23682L18.6593 2.22082C18.5757 2.2072 18.4911 2.20025 18.4065 2.20002C18.1321 2.19638 17.8582 2.22484 17.5905 2.28482C16.9105 2.43042 15.9521 2.79202 14.6785 3.61602L15.5457 4.96002C16.6961 4.21762 17.4753 3.94562 17.9265 3.84962C18.0696 3.81588 18.2162 3.7987 18.3633 3.79842L18.4161 3.80162L18.4033 3.80002L18.3873 3.79682L18.3777 3.79362H18.3729L18.3697 3.79202C18.3681 3.79202 18.3665 3.79202 18.5873 3.02082M15.3121 3.51202C13.1404 2.94546 10.8597 2.94546 8.68806 3.51202L9.09126 5.06082C10.9985 4.5631 13.0016 4.5631 14.9089 5.06082L15.3121 3.51202ZM9.32326 3.61442C8.04806 2.79362 7.08806 2.43202 6.40806 2.28802C6.1403 2.22804 5.86644 2.19958 5.59206 2.20322C5.46231 2.20715 5.33321 2.22322 5.20646 2.25122L5.20006 2.25442H5.19526L5.41286 3.02402L5.63206 3.79362L5.62726 3.79522L5.62246 3.79682L5.59686 3.80322L5.63686 3.80162C5.78394 3.8019 5.9305 3.81908 6.07366 3.85282C6.52486 3.94882 7.30406 4.21922 8.45446 4.96162L9.32326 3.61442ZM4.68326 2.69282C4.4135 3.29507 4.26664 3.94509 4.25126 4.60482L5.85126 4.64482C5.8612 4.19655 5.96075 3.75481 6.14406 3.34562L4.68326 2.69282ZM4.25126 4.60482C4.23526 5.26562 4.34726 5.92162 4.58726 6.53602L6.07846 5.95682C5.91542 5.53913 5.83762 5.09304 5.84966 4.64482L4.25126 4.60482ZM4.76646 5.68162C4.26973 6.18265 3.8752 6.77553 3.60486 7.42722L5.08326 8.03522C5.27206 7.57922 5.55046 7.16322 5.89926 6.81122L4.76646 5.68162ZM3.60486 7.42722C3.33735 8.08134 3.19985 8.78131 3.20006 9.48802L4.80006 9.48482C4.80006 8.98882 4.89606 8.49762 5.08326 8.04002L3.60486 7.42722ZM3.20006 9.48802C3.20006 11.9728 3.93286 13.6432 5.18246 14.7168C6.39366 15.7568 7.96646 16.1248 9.40646 16.296L9.59526 14.7072C8.24006 14.544 7.06566 14.224 6.22406 13.5008C5.42086 12.8112 4.80006 11.6416 4.80006 9.48482L3.20006 9.48802ZM8.93606 14.9344C8.13606 15.7312 7.92966 16.6784 8.00166 17.6608L9.59846 17.5408C9.55046 16.888 9.68326 16.448 10.0657 16.0672L8.93606 14.9344ZM8.00006 17.6V23.2H9.60006V17.6H8.00006ZM16.0001 23.2V20.8H14.4001V23.2H16.0001ZM16.0001 20.8V17.5008H14.4001V20.8H16.0001Z" fill="#0F172A"/>
</g>
<defs>
<clipPath id="clip0_2436_32390">
<rect width="24" height="24" fill="white"/>
</clipPath>
</defs>
</svg>
