<svg width="99" height="96" viewBox="0 0 99 96" fill="none" xmlns="http://www.w3.org/2000/svg">
<path d="M0.83708 22.1305C0.880684 19.2956 3.23409 16.5522 6.17558 15.9847L87.4519 0.303994C93.7099 -0.903367 99 1.59021 99 5.93055V89.5903C99 94.0516 93.6286 96.8089 87.2785 95.7875L5.2059 82.5874C2.24944 82.1119 -0.043757 79.3959 0.000633673 76.5099L0.83708 22.1305Z" fill="white"/>
<path d="M58.9779 49.1192C58.3357 57.8023 49.2562 64.1853 39.1083 63.669C29.5186 63.1811 22.4044 56.5418 22.4965 48.8202C22.5885 41.1173 29.8313 34.2745 39.3899 33.459L55.7221 32.0656C57.5534 31.9094 59.0788 32.9559 59.0699 34.383L58.9779 49.1192Z" fill="#1A73E8"/>
<path d="M55.7221 32.0656L39.3899 33.459C29.8294 34.2746 22.5885 41.1141 22.4966 48.8123C22.4963 48.8393 22.497 48.7822 22.4967 48.8091C22.6356 41.1447 29.8596 34.4354 39.3884 33.6298L55.7208 32.249C57.5546 32.0939 59.0776 33.1419 59.0687 34.5691L59.0699 34.383C59.0788 32.9559 57.5558 31.9091 55.7221 32.0656Z" fill="white"/>
<path d="M58.9779 49.1192L58.9802 48.7453C58.3381 57.4302 49.2598 64.005 39.1099 63.4965C29.5506 63.0176 22.456 56.3487 22.5002 48.6615C22.4999 48.6885 22.4969 48.7933 22.4965 48.8202C22.4043 56.5434 29.5165 63.1958 39.1083 63.669C49.4256 64.1776 58.4039 57.7907 58.979 48.9323" fill="#1A237E" fill-opacity="0.2"/>
<path d="M46.8947 51.415C46.8825 52.9226 45.428 53.8931 43.613 53.8829L33.381 53.8155C31.7541 53.8064 30.5011 52.8947 30.5141 51.4963L30.5054 52.3102C30.4924 53.7105 31.7437 54.8035 33.3707 54.8202L43.604 54.9352C45.4169 54.9538 46.8774 53.8119 46.8875 52.3039L46.8947 51.415Z" fill="#185ABC"/>
<path d="M52.3063 52.1198C52.2961 52.5693 51.5389 52.8137 51.154 52.4833L46.9135 49.1051L46.9063 49.9933L51.1473 53.389C51.6033 53.7377 52.2961 53.5232 52.2997 53.0298L52.3063 52.1198Z" fill="#185ABC"/>
<path d="M51.2215 43.4403L46.9308 46.9743L46.9135 49.1068L51.154 52.4833C51.5572 52.8246 52.3029 52.5893 52.3063 52.1198L52.3672 43.7594C52.3706 43.302 51.6383 43.1025 51.2215 43.4403Z" fill="#F1F3F4"/>
<path d="M43.7143 42.1556L33.4956 42.618C31.8706 42.6932 30.5938 43.8584 30.5812 45.2187L30.5142 51.4848C30.5016 52.8485 31.7524 53.9726 33.3793 53.9829L43.6115 54.0583C45.4243 54.0699 46.885 52.8835 46.8947 51.415L46.9496 44.6677C46.9593 43.2031 45.5245 42.072 43.7143 42.1556Z" fill="white"/>
<path d="M46.9118 49.3183L46.9157 49.1051L47.7929 49.8057L47.8214 46.2409L46.9308 46.9743L46.9118 49.3183Z" fill="#BDC1C6"/>
</svg>
