<svg width="277" height="190" viewBox="0 0 277 190" fill="none" xmlns="http://www.w3.org/2000/svg">
<g clip-path="url(#clip0_2436_32696)">
<rect width="277" height="190" rx="16" fill="#035A69"/>
<rect x="23" y="52" width="415" height="151" rx="8" fill="#F7F9FB"/>
<path d="M37 73C37 73 37.5 72.5 39 72.5C40.5 72.5 41.5 73.5 43 73.5C44.5 73.5 45 73 45 73V67C45 67 44.5 67.5 43 67.5C41.5 67.5 40.5 66.5 39 66.5C37.5 66.5 37 67 37 67V73ZM37 73V76.5" stroke="#AA3030" stroke-width="0.665" stroke-linecap="round" stroke-linejoin="round"/>
<path d="M51.74 75V67.9H54.85C55.37 67.9 55.82 67.9867 56.2 68.16C56.5867 68.3333 56.8833 68.58 57.09 68.9C57.2967 69.2133 57.4 69.5867 57.4 70.02C57.4 70.3467 57.33 70.6367 57.19 70.89C57.0567 71.1433 56.87 71.35 56.63 71.51C56.3967 71.67 56.1267 71.77 55.82 71.81L55.79 71.72C56.2633 71.72 56.6233 71.8233 56.87 72.03C57.1167 72.23 57.2567 72.54 57.29 72.96L57.47 75H55.92L55.79 73.2C55.77 72.9267 55.6833 72.7267 55.53 72.6C55.3833 72.4667 55.13 72.4 54.77 72.4H53.26V75H51.74ZM53.26 71.13H54.68C55.0467 71.13 55.33 71.0467 55.53 70.88C55.7367 70.7067 55.84 70.4633 55.84 70.15C55.84 69.83 55.7367 69.59 55.53 69.43C55.3233 69.2633 55.0233 69.18 54.63 69.18H53.26V71.13ZM60.8669 75.12C60.3202 75.12 59.8435 75.0067 59.4369 74.78C59.0369 74.5467 58.7235 74.22 58.4969 73.8C58.2769 73.38 58.1669 72.8867 58.1669 72.32C58.1669 71.7533 58.2769 71.2633 58.4969 70.85C58.7235 70.43 59.0369 70.1033 59.4369 69.87C59.8369 69.6367 60.3102 69.52 60.8569 69.52C61.3902 69.52 61.8535 69.6367 62.2469 69.87C62.6402 70.1033 62.9435 70.4367 63.1569 70.87C63.3769 71.3033 63.4869 71.82 63.4869 72.42V72.72H59.7169C59.7369 73.1467 59.8502 73.4633 60.0569 73.67C60.2702 73.8767 60.5502 73.98 60.8969 73.98C61.1502 73.98 61.3602 73.9267 61.5269 73.82C61.7002 73.7133 61.8235 73.55 61.8969 73.33L63.4069 73.42C63.2669 73.9533 62.9702 74.37 62.5169 74.67C62.0635 74.97 61.5135 75.12 60.8669 75.12ZM59.7169 71.8H61.9469C61.9269 71.4067 61.8169 71.1133 61.6169 70.92C61.4235 70.7267 61.1702 70.63 60.8569 70.63C60.5435 70.63 60.2835 70.7333 60.0769 70.94C59.8769 71.14 59.7569 71.4267 59.7169 71.8ZM66.3239 75.12C65.8706 75.12 65.4772 75.0067 65.1439 74.78C64.8172 74.5467 64.5639 74.2233 64.3839 73.81C64.2106 73.39 64.1239 72.8933 64.1239 72.32C64.1239 71.7467 64.2139 71.2533 64.3939 70.84C64.5739 70.42 64.8272 70.0967 65.1539 69.87C65.4872 69.6367 65.8772 69.52 66.3239 69.52C66.7039 69.52 67.0306 69.6 67.3039 69.76C67.5839 69.9133 67.7939 70.1267 67.9339 70.4V67.9H69.4339V75H68.0039L67.9739 74.21C67.8272 74.4967 67.6072 74.72 67.3139 74.88C67.0272 75.04 66.6972 75.12 66.3239 75.12ZM66.8139 73.97C67.0539 73.97 67.2572 73.9067 67.4239 73.78C67.5906 73.6533 67.7172 73.47 67.8039 73.23C67.8906 72.9833 67.9339 72.68 67.9339 72.32C67.9339 71.9533 67.8906 71.65 67.8039 71.41C67.7172 71.1633 67.5906 70.98 67.4239 70.86C67.2572 70.7333 67.0539 70.67 66.8139 70.67C66.4606 70.67 66.1806 70.82 65.9739 71.12C65.7672 71.4133 65.6639 71.8133 65.6639 72.32C65.6639 72.82 65.7672 73.22 65.9739 73.52C66.1872 73.82 66.4672 73.97 66.8139 73.97ZM73.6072 75V69.57C73.6072 69.0367 73.7505 68.6267 74.0372 68.34C74.3239 68.0467 74.7705 67.9 75.3772 67.9H76.5172V69.02H75.6972C75.4905 69.02 75.3405 69.0733 75.2472 69.18C75.1539 69.28 75.1072 69.4333 75.1072 69.64V75H73.6072ZM72.8272 70.96V69.84H76.4372V70.96H72.8272ZM78.7372 75C78.2972 75 77.9539 74.89 77.7072 74.67C77.4605 74.45 77.3372 74.0933 77.3372 73.6V67.9H78.8372V73.44C78.8372 73.6 78.8739 73.7133 78.9472 73.78C79.0205 73.8467 79.1272 73.88 79.2672 73.88H79.6272V75H78.7372ZM82.0391 75.12C81.4857 75.12 81.0324 74.9933 80.6791 74.74C80.3324 74.48 80.1591 74.12 80.1591 73.66C80.1591 73.1867 80.3057 72.8233 80.5991 72.57C80.8991 72.31 81.3391 72.12 81.9191 72L83.6491 71.66C83.6491 71.3133 83.5691 71.0533 83.4091 70.88C83.2557 70.7 83.0324 70.61 82.7391 70.61C82.4524 70.61 82.2291 70.6767 82.0691 70.81C81.9091 70.9367 81.8057 71.1267 81.7591 71.38L80.2491 71.31C80.3491 70.7233 80.6124 70.28 81.0391 69.98C81.4724 69.6733 82.0391 69.52 82.7391 69.52C83.5391 69.52 84.1391 69.71 84.5391 70.09C84.9457 70.47 85.1491 71.0267 85.1491 71.76V73.59C85.1491 73.7433 85.1724 73.8467 85.2191 73.9C85.2724 73.9467 85.3491 73.97 85.4491 73.97H85.5991V75C85.5524 75.0133 85.4757 75.0267 85.3691 75.04C85.2691 75.0533 85.1691 75.06 85.0691 75.06C84.8557 75.06 84.6557 75.0233 84.4691 74.95C84.2891 74.8767 84.1424 74.7533 84.0291 74.58C83.9157 74.4 83.8591 74.1467 83.8591 73.82L83.9891 73.92C83.9224 74.16 83.8024 74.37 83.6291 74.55C83.4624 74.73 83.2424 74.87 82.9691 74.97C82.7024 75.07 82.3924 75.12 82.0391 75.12ZM82.3991 74.09C82.6457 74.09 82.8624 74.0433 83.0491 73.95C83.2357 73.85 83.3824 73.7067 83.4891 73.52C83.5957 73.3333 83.6491 73.1133 83.6491 72.86V72.6L82.4291 72.86C82.1891 72.9067 82.0057 72.9867 81.8791 73.1C81.7591 73.2067 81.6991 73.3467 81.6991 73.52C81.6991 73.7 81.7591 73.84 81.8791 73.94C81.9991 74.04 82.1724 74.09 82.3991 74.09ZM88.6889 76.62C88.1756 76.62 87.7456 76.5567 87.3989 76.43C87.0589 76.3033 86.7856 76.1267 86.5789 75.9C86.3789 75.6733 86.2389 75.4133 86.1589 75.12L87.6989 75.01C87.7522 75.1833 87.8522 75.32 87.9989 75.42C88.1522 75.52 88.3822 75.57 88.6889 75.57C89.0489 75.57 89.3222 75.4833 89.5089 75.31C89.7022 75.1433 89.7989 74.8733 89.7989 74.5V73.93C89.6722 74.1767 89.4689 74.3767 89.1889 74.53C88.9089 74.6767 88.5956 74.75 88.2489 74.75C87.8089 74.75 87.4189 74.6433 87.0789 74.43C86.7389 74.21 86.4722 73.9067 86.2789 73.52C86.0922 73.1267 85.9989 72.6667 85.9989 72.14C85.9989 71.6267 86.0922 71.1733 86.2789 70.78C86.4722 70.3867 86.7356 70.08 87.0689 69.86C87.4089 69.6333 87.7956 69.52 88.2289 69.52C88.6222 69.52 88.9522 69.6067 89.2189 69.78C89.4922 69.9533 89.6989 70.1833 89.8389 70.47V69.64H91.3089V74.47C91.3089 74.95 91.1989 75.3467 90.9789 75.66C90.7589 75.98 90.4522 76.22 90.0589 76.38C89.6656 76.54 89.2089 76.62 88.6889 76.62ZM88.6789 73.64C89.0256 73.64 89.2989 73.5067 89.4989 73.24C89.7056 72.9733 89.8089 72.6033 89.8089 72.13C89.8089 71.8167 89.7622 71.5467 89.6689 71.32C89.5822 71.0933 89.4522 70.92 89.2789 70.8C89.1122 70.68 88.9122 70.62 88.6789 70.62C88.3189 70.62 88.0389 70.7567 87.8389 71.03C87.6389 71.3033 87.5389 71.67 87.5389 72.13C87.5389 72.5967 87.6422 72.9667 87.8489 73.24C88.0556 73.5067 88.3322 73.64 88.6789 73.64ZM94.8191 75.12C94.2658 75.12 93.8025 75.0433 93.4291 74.89C93.0558 74.73 92.7691 74.5167 92.5691 74.25C92.3758 73.9767 92.2658 73.6633 92.2391 73.31L93.7591 73.26C93.8058 73.5133 93.9125 73.71 94.0791 73.85C94.2458 73.99 94.4925 74.06 94.8191 74.06C95.0858 74.06 95.2925 74.0167 95.4391 73.93C95.5925 73.8433 95.6691 73.71 95.6691 73.53C95.6691 73.4167 95.6425 73.3233 95.5891 73.25C95.5358 73.17 95.4291 73.1033 95.2691 73.05C95.1158 72.99 94.8858 72.9367 94.5791 72.89C94.0125 72.79 93.5691 72.6733 93.2491 72.54C92.9291 72.4067 92.7025 72.2333 92.5691 72.02C92.4358 71.8067 92.3691 71.5467 92.3691 71.24C92.3691 70.7267 92.5658 70.3133 92.9591 70C93.3591 69.68 93.9558 69.52 94.7491 69.52C95.2558 69.52 95.6791 69.6 96.0191 69.76C96.3658 69.92 96.6325 70.14 96.8191 70.42C97.0125 70.6933 97.1325 71.0067 97.1791 71.36L95.6691 71.42C95.6491 71.2467 95.5958 71.1 95.5091 70.98C95.4291 70.8533 95.3258 70.7567 95.1991 70.69C95.0725 70.6167 94.9191 70.58 94.7391 70.58C94.4725 70.58 94.2658 70.6367 94.1191 70.75C93.9791 70.8567 93.9091 71 93.9091 71.18C93.9091 71.3133 93.9391 71.4233 93.9991 71.51C94.0658 71.59 94.1725 71.6567 94.3191 71.71C94.4658 71.7633 94.6625 71.8067 94.9091 71.84C95.4825 71.92 95.9358 72.0333 96.2691 72.18C96.6091 72.32 96.8525 72.4967 96.9991 72.71C97.1458 72.9233 97.2191 73.1867 97.2191 73.5C97.2191 73.8467 97.1191 74.14 96.9191 74.38C96.7191 74.62 96.4391 74.8033 96.0791 74.93C95.7258 75.0567 95.3058 75.12 94.8191 75.12Z" fill="#AA3030"/>
<rect x="35.25" y="85.25" width="390.5" height="71.5" rx="3.75" stroke="#AA3030" stroke-width="0.5"/>
<rect x="43" y="93" width="375" height="28" rx="4" fill="#FEFEFF"/>
<path d="M51.736 110V104.32H52.424V109.68L52.08 109.328H55.264V110H51.736ZM55.8822 110V105.76H56.5542V110H55.8822ZM55.8662 105.096V104.312H56.5702V105.096H55.8662ZM57.9134 110V105.76H58.5294L58.5534 106.832L58.4574 106.8C58.5054 106.565 58.5881 106.365 58.7054 106.2C58.8281 106.029 58.9774 105.899 59.1534 105.808C59.3294 105.712 59.5241 105.664 59.7374 105.664C60.1054 105.664 60.4041 105.765 60.6334 105.968C60.8681 106.171 61.0148 106.453 61.0734 106.816L60.9454 106.808C60.9881 106.563 61.0654 106.357 61.1774 106.192C61.2948 106.021 61.4441 105.891 61.6254 105.8C61.8068 105.709 62.0148 105.664 62.2494 105.664C62.5534 105.664 62.8094 105.728 63.0174 105.856C63.2254 105.979 63.3828 106.16 63.4894 106.4C63.5961 106.64 63.6494 106.931 63.6494 107.272V110H62.9774V107.416C62.9774 107.032 62.9028 106.744 62.7534 106.552C62.6041 106.355 62.3828 106.256 62.0894 106.256C61.8921 106.256 61.7188 106.304 61.5694 106.4C61.4254 106.496 61.3134 106.635 61.2334 106.816C61.1534 106.992 61.1134 107.208 61.1134 107.464V110H60.4414V107.464C60.4414 107.085 60.3748 106.789 60.2414 106.576C60.1081 106.363 59.8841 106.256 59.5694 106.256C59.3721 106.256 59.1988 106.304 59.0494 106.4C58.9054 106.496 58.7908 106.635 58.7054 106.816C58.6254 106.997 58.5854 107.213 58.5854 107.464V110H57.9134ZM64.8509 110V105.76H65.5229V110H64.8509ZM64.8349 105.096V104.312H65.5389V105.096H64.8349ZM68.0358 110C67.6518 110 67.3664 109.912 67.1798 109.736C66.9984 109.56 66.9078 109.285 66.9078 108.912V104.768H67.5798V108.896C67.5798 109.088 67.6224 109.221 67.7078 109.296C67.7931 109.371 67.9238 109.408 68.0998 109.408H68.7078V110H68.0358ZM66.2838 106.352V105.76H68.7078V106.352H66.2838ZM71.1476 110.096C70.7476 110.096 70.4009 110.005 70.1076 109.824C69.8196 109.643 69.5956 109.387 69.4356 109.056C69.2809 108.72 69.2036 108.328 69.2036 107.88C69.2036 107.432 69.2809 107.043 69.4356 106.712C69.5956 106.381 69.8169 106.125 70.0996 105.944C70.3876 105.757 70.7262 105.664 71.1156 105.664C71.4836 105.664 71.8089 105.752 72.0916 105.928C72.3742 106.099 72.5929 106.349 72.7476 106.68C72.9076 107.011 72.9876 107.413 72.9876 107.888V108.088H69.9076C69.9342 108.541 70.0542 108.883 70.2676 109.112C70.4862 109.341 70.7796 109.456 71.1476 109.456C71.4249 109.456 71.6516 109.392 71.8276 109.264C72.0089 109.131 72.1342 108.957 72.2036 108.744L72.9236 108.8C72.8116 109.179 72.5982 109.491 72.2836 109.736C71.9742 109.976 71.5956 110.096 71.1476 110.096ZM69.9076 107.496H72.2516C72.2196 107.085 72.0996 106.784 71.8916 106.592C71.6889 106.4 71.4302 106.304 71.1156 106.304C70.7902 106.304 70.5209 106.405 70.3076 106.608C70.0996 106.805 69.9662 107.101 69.9076 107.496ZM75.4018 110.096C75.0338 110.096 74.7138 110.005 74.4418 109.824C74.1751 109.643 73.9698 109.387 73.8258 109.056C73.6818 108.725 73.6098 108.333 73.6098 107.88C73.6098 107.427 73.6818 107.035 73.8258 106.704C73.9698 106.373 74.1751 106.117 74.4418 105.936C74.7138 105.755 75.0338 105.664 75.4018 105.664C75.6845 105.664 75.9431 105.725 76.1778 105.848C76.4125 105.965 76.5885 106.133 76.7058 106.352V104.32H77.3778V110H76.7698L76.7458 109.36C76.6285 109.589 76.4498 109.771 76.2098 109.904C75.9698 110.032 75.7005 110.096 75.4018 110.096ZM75.5378 109.456C75.7885 109.456 75.9991 109.392 76.1698 109.264C76.3458 109.136 76.4791 108.955 76.5698 108.72C76.6605 108.48 76.7058 108.2 76.7058 107.88C76.7058 107.549 76.6605 107.267 76.5698 107.032C76.4791 106.797 76.3458 106.619 76.1698 106.496C75.9991 106.368 75.7885 106.304 75.5378 106.304C75.1645 106.304 74.8658 106.445 74.6418 106.728C74.4231 107.005 74.3138 107.389 74.3138 107.88C74.3138 108.365 74.4231 108.749 74.6418 109.032C74.8658 109.315 75.1645 109.456 75.5378 109.456ZM82.3116 110.096C81.9116 110.096 81.565 110.005 81.2716 109.824C80.9836 109.643 80.7596 109.387 80.5996 109.056C80.445 108.72 80.3676 108.328 80.3676 107.88C80.3676 107.432 80.445 107.043 80.5996 106.712C80.7596 106.381 80.981 106.125 81.2636 105.944C81.5516 105.757 81.8903 105.664 82.2796 105.664C82.6476 105.664 82.973 105.752 83.2556 105.928C83.5383 106.099 83.757 106.349 83.9116 106.68C84.0716 107.011 84.1516 107.413 84.1516 107.888V108.088H81.0716C81.0983 108.541 81.2183 108.883 81.4316 109.112C81.6503 109.341 81.9436 109.456 82.3116 109.456C82.589 109.456 82.8156 109.392 82.9916 109.264C83.173 109.131 83.2983 108.957 83.3676 108.744L84.0876 108.8C83.9756 109.179 83.7623 109.491 83.4476 109.736C83.1383 109.976 82.7596 110.096 82.3116 110.096ZM81.0716 107.496H83.4156C83.3836 107.085 83.2636 106.784 83.0556 106.592C82.853 106.4 82.5943 106.304 82.2796 106.304C81.9543 106.304 81.685 106.405 81.4716 106.608C81.2636 106.805 81.1303 107.101 81.0716 107.496ZM84.4776 110L86.0376 107.824L84.5576 105.76H85.3416L86.4536 107.36L87.5336 105.76H88.3336L86.8696 107.84L88.4056 110H87.6216L86.4536 108.288L85.2776 110H84.4776ZM89.0853 111.2V105.76H89.7093L89.7253 106.672L89.6293 106.624C89.736 106.309 89.912 106.072 90.1573 105.912C90.408 105.747 90.696 105.664 91.0213 105.664C91.4426 105.664 91.7866 105.768 92.0533 105.976C92.3253 106.184 92.5253 106.456 92.6533 106.792C92.7866 107.128 92.8533 107.491 92.8533 107.88C92.8533 108.269 92.7866 108.632 92.6533 108.968C92.5253 109.304 92.3253 109.576 92.0533 109.784C91.7866 109.992 91.4426 110.096 91.0213 110.096C90.8026 110.096 90.5973 110.059 90.4053 109.984C90.2186 109.909 90.0586 109.805 89.9253 109.672C89.7973 109.539 89.7093 109.381 89.6613 109.2L89.7573 109.088V111.2H89.0853ZM90.9573 109.456C91.3253 109.456 91.616 109.317 91.8293 109.04C92.0426 108.763 92.1493 108.376 92.1493 107.88C92.1493 107.384 92.0426 106.997 91.8293 106.72C91.616 106.443 91.3253 106.304 90.9573 106.304C90.712 106.304 90.4986 106.363 90.3173 106.48C90.1413 106.597 90.0026 106.773 89.9013 107.008C89.8053 107.243 89.7573 107.533 89.7573 107.88C89.7573 108.227 89.8053 108.517 89.9013 108.752C89.9973 108.987 90.136 109.163 90.3173 109.28C90.4986 109.397 90.712 109.456 90.9573 109.456ZM95.421 110.096C95.021 110.096 94.6743 110.005 94.381 109.824C94.093 109.643 93.869 109.387 93.709 109.056C93.5543 108.72 93.477 108.328 93.477 107.88C93.477 107.432 93.5543 107.043 93.709 106.712C93.869 106.381 94.0903 106.125 94.373 105.944C94.661 105.757 94.9997 105.664 95.389 105.664C95.757 105.664 96.0823 105.752 96.365 105.928C96.6477 106.099 96.8663 106.349 97.021 106.68C97.181 107.011 97.261 107.413 97.261 107.888V108.088H94.181C94.2077 108.541 94.3277 108.883 94.541 109.112C94.7597 109.341 95.053 109.456 95.421 109.456C95.6983 109.456 95.925 109.392 96.101 109.264C96.2823 109.131 96.4077 108.957 96.477 108.744L97.197 108.8C97.085 109.179 96.8717 109.491 96.557 109.736C96.2477 109.976 95.869 110.096 95.421 110.096ZM94.181 107.496H96.525C96.493 107.085 96.373 106.784 96.165 106.592C95.9623 106.4 95.7037 106.304 95.389 106.304C95.0637 106.304 94.7943 106.405 94.581 106.608C94.373 106.805 94.2397 107.101 94.181 107.496ZM98.1713 110V105.76H98.7633L98.7953 106.832L98.7313 106.808C98.7846 106.445 98.8993 106.181 99.0753 106.016C99.2566 105.845 99.4966 105.76 99.7953 105.76H100.211V106.4H99.8033C99.5899 106.4 99.4113 106.44 99.2673 106.52C99.1286 106.595 99.0219 106.709 98.9473 106.864C98.8779 107.013 98.8433 107.205 98.8433 107.44V110H98.1713ZM100.96 110V105.76H101.632V110H100.96ZM100.944 105.096V104.312H101.648V105.096H100.944ZM104.491 110.096C104.091 110.096 103.745 110.005 103.451 109.824C103.163 109.643 102.939 109.387 102.779 109.056C102.625 108.72 102.547 108.328 102.547 107.88C102.547 107.432 102.625 107.043 102.779 106.712C102.939 106.381 103.161 106.125 103.443 105.944C103.731 105.757 104.07 105.664 104.459 105.664C104.827 105.664 105.153 105.752 105.435 105.928C105.718 106.099 105.937 106.349 106.091 106.68C106.251 107.011 106.331 107.413 106.331 107.888V108.088H103.251C103.278 108.541 103.398 108.883 103.611 109.112C103.83 109.341 104.123 109.456 104.491 109.456C104.769 109.456 104.995 109.392 105.171 109.264C105.353 109.131 105.478 108.957 105.547 108.744L106.267 108.8C106.155 109.179 105.942 109.491 105.627 109.736C105.318 109.976 104.939 110.096 104.491 110.096ZM103.251 107.496H105.595C105.563 107.085 105.443 106.784 105.235 106.592C105.033 106.4 104.774 106.304 104.459 106.304C104.134 106.304 103.865 106.405 103.651 106.608C103.443 106.805 103.31 107.101 103.251 107.496ZM107.242 110V105.76H107.858L107.882 106.84L107.802 106.768C107.855 106.517 107.948 106.312 108.082 106.152C108.215 105.987 108.375 105.864 108.562 105.784C108.754 105.704 108.959 105.664 109.178 105.664C109.503 105.664 109.77 105.736 109.978 105.88C110.191 106.024 110.348 106.219 110.45 106.464C110.556 106.704 110.61 106.973 110.61 107.272V110H109.938V107.464C109.938 107.203 109.906 106.984 109.842 106.808C109.783 106.627 109.687 106.491 109.554 106.4C109.42 106.304 109.247 106.256 109.034 106.256C108.708 106.256 108.439 106.36 108.226 106.568C108.018 106.771 107.914 107.069 107.914 107.464V110H107.242ZM113.452 110.096C113.058 110.096 112.714 110.005 112.42 109.824C112.132 109.643 111.908 109.387 111.748 109.056C111.588 108.72 111.508 108.328 111.508 107.88C111.508 107.432 111.588 107.043 111.748 106.712C111.908 106.381 112.132 106.125 112.42 105.944C112.714 105.757 113.058 105.664 113.452 105.664C113.778 105.664 114.066 105.723 114.316 105.84C114.572 105.952 114.78 106.117 114.94 106.336C115.1 106.555 115.204 106.821 115.252 107.136L114.548 107.184C114.5 106.901 114.378 106.685 114.18 106.536C113.983 106.381 113.74 106.304 113.452 106.304C113.063 106.304 112.759 106.445 112.54 106.728C112.322 107.005 112.212 107.389 112.212 107.88C112.212 108.371 112.322 108.757 112.54 109.04C112.759 109.317 113.063 109.456 113.452 109.456C113.74 109.456 113.983 109.376 114.18 109.216C114.378 109.056 114.5 108.816 114.548 108.496L115.252 108.544C115.204 108.859 115.1 109.133 114.94 109.368C114.78 109.597 114.572 109.776 114.316 109.904C114.066 110.032 113.778 110.096 113.452 110.096ZM117.741 110.096C117.341 110.096 116.995 110.005 116.701 109.824C116.413 109.643 116.189 109.387 116.029 109.056C115.875 108.72 115.797 108.328 115.797 107.88C115.797 107.432 115.875 107.043 116.029 106.712C116.189 106.381 116.411 106.125 116.693 105.944C116.981 105.757 117.32 105.664 117.709 105.664C118.077 105.664 118.403 105.752 118.685 105.928C118.968 106.099 119.187 106.349 119.341 106.68C119.501 107.011 119.581 107.413 119.581 107.888V108.088H116.501C116.528 108.541 116.648 108.883 116.861 109.112C117.08 109.341 117.373 109.456 117.741 109.456C118.019 109.456 118.245 109.392 118.421 109.264C118.603 109.131 118.728 108.957 118.797 108.744L119.517 108.8C119.405 109.179 119.192 109.491 118.877 109.736C118.568 109.976 118.189 110.096 117.741 110.096ZM116.501 107.496H118.845C118.813 107.085 118.693 106.784 118.485 106.592C118.283 106.4 118.024 106.304 117.709 106.304C117.384 106.304 117.115 106.405 116.901 106.608C116.693 106.805 116.56 107.101 116.501 107.496ZM123.418 110L122.106 105.76H122.842L123.834 109.296L124.842 105.76H125.562L126.57 109.296L127.57 105.76H128.306L126.994 110H126.146L125.202 106.776L124.258 110H123.418ZM130.569 110.096C130.18 110.096 129.839 110.005 129.545 109.824C129.252 109.643 129.025 109.387 128.865 109.056C128.705 108.72 128.625 108.328 128.625 107.88C128.625 107.427 128.705 107.035 128.865 106.704C129.025 106.373 129.252 106.117 129.545 105.936C129.839 105.755 130.18 105.664 130.569 105.664C130.959 105.664 131.297 105.755 131.585 105.936C131.879 106.117 132.105 106.373 132.265 106.704C132.425 107.035 132.505 107.427 132.505 107.88C132.505 108.328 132.425 108.72 132.265 109.056C132.105 109.387 131.879 109.643 131.585 109.824C131.297 110.005 130.959 110.096 130.569 110.096ZM130.569 109.456C130.959 109.456 131.26 109.317 131.473 109.04C131.692 108.757 131.801 108.371 131.801 107.88C131.801 107.389 131.692 107.005 131.473 106.728C131.26 106.445 130.959 106.304 130.569 106.304C130.18 106.304 129.876 106.445 129.657 106.728C129.439 107.005 129.329 107.389 129.329 107.88C129.329 108.371 129.439 108.757 129.657 109.04C129.876 109.317 130.18 109.456 130.569 109.456ZM133.421 110V105.76H134.013L134.045 106.832L133.981 106.808C134.035 106.445 134.149 106.181 134.325 106.016C134.507 105.845 134.747 105.76 135.045 105.76H135.461V106.4H135.053C134.84 106.4 134.661 106.44 134.517 106.52C134.379 106.595 134.272 106.709 134.197 106.864C134.128 107.013 134.093 107.205 134.093 107.44V110H133.421ZM136.21 110V104.32H136.882V108.04L138.946 105.76H139.842L138.17 107.56L139.914 110H139.098L137.714 108.016L136.882 108.896V110H136.21ZM140.531 110V105.76H141.203V110H140.531ZM140.515 105.096V104.312H141.219V105.096H140.515ZM142.562 110V105.76H143.178L143.202 106.84L143.122 106.768C143.175 106.517 143.269 106.312 143.402 106.152C143.535 105.987 143.695 105.864 143.882 105.784C144.074 105.704 144.279 105.664 144.498 105.664C144.823 105.664 145.09 105.736 145.298 105.88C145.511 106.024 145.669 106.219 145.77 106.464C145.877 106.704 145.93 106.973 145.93 107.272V110H145.258V107.464C145.258 107.203 145.226 106.984 145.162 106.808C145.103 106.627 145.007 106.491 144.874 106.4C144.741 106.304 144.567 106.256 144.354 106.256C144.029 106.256 143.759 106.36 143.546 106.568C143.338 106.771 143.234 107.069 143.234 107.464V110H142.562ZM148.725 111.296C148.421 111.296 148.146 111.245 147.901 111.144C147.655 111.043 147.45 110.899 147.285 110.712C147.119 110.525 147.007 110.309 146.949 110.064L147.653 110.016C147.717 110.213 147.829 110.368 147.989 110.48C148.154 110.597 148.399 110.656 148.725 110.656C149.109 110.656 149.402 110.579 149.605 110.424C149.813 110.269 149.917 110.037 149.917 109.728V109.04C149.815 109.264 149.653 109.443 149.429 109.576C149.205 109.709 148.954 109.776 148.677 109.776C148.319 109.776 147.999 109.688 147.717 109.512C147.439 109.336 147.221 109.093 147.061 108.784C146.906 108.475 146.829 108.12 146.829 107.72C146.829 107.315 146.906 106.96 147.061 106.656C147.215 106.347 147.429 106.104 147.701 105.928C147.978 105.752 148.293 105.664 148.645 105.664C148.943 105.664 149.21 105.733 149.445 105.872C149.685 106.011 149.853 106.197 149.949 106.432V105.76H150.589V109.712C150.589 110.043 150.514 110.325 150.365 110.56C150.215 110.8 150.002 110.981 149.725 111.104C149.447 111.232 149.114 111.296 148.725 111.296ZM148.709 109.136C149.071 109.136 149.362 109.011 149.581 108.76C149.799 108.504 149.911 108.157 149.917 107.72C149.922 107.427 149.874 107.176 149.773 106.968C149.677 106.755 149.535 106.592 149.349 106.48C149.167 106.363 148.954 106.304 148.709 106.304C148.335 106.304 148.045 106.432 147.837 106.688C147.634 106.939 147.533 107.283 147.533 107.72C147.533 108.157 147.637 108.504 147.845 108.76C148.058 109.011 148.346 109.136 148.709 109.136ZM154.715 110L153.403 105.76H154.139L155.131 109.296L156.139 105.76H156.859L157.867 109.296L158.867 105.76H159.603L158.291 110H157.443L156.499 106.776L155.555 110H154.715ZM160.343 110V105.76H161.015V110H160.343ZM160.327 105.096V104.312H161.031V105.096H160.327ZM163.528 110C163.144 110 162.859 109.912 162.672 109.736C162.491 109.56 162.4 109.285 162.4 108.912V104.768H163.072V108.896C163.072 109.088 163.115 109.221 163.2 109.296C163.285 109.371 163.416 109.408 163.592 109.408H164.2V110H163.528ZM161.776 106.352V105.76H164.2V106.352H161.776ZM165.062 110V104.32H165.734V106.696L165.654 106.68C165.707 106.445 165.798 106.253 165.926 106.104C166.054 105.955 166.211 105.845 166.398 105.776C166.585 105.701 166.79 105.664 167.014 105.664C167.318 105.664 167.574 105.733 167.782 105.872C167.995 106.005 168.155 106.195 168.262 106.44C168.374 106.68 168.43 106.957 168.43 107.272V110H167.758V107.464C167.758 107.053 167.683 106.749 167.534 106.552C167.39 106.355 167.169 106.256 166.87 106.256C166.529 106.256 166.254 106.36 166.046 106.568C165.838 106.776 165.734 107.077 165.734 107.472V110H165.062ZM172.542 110C172.297 110 172.097 109.936 171.942 109.808C171.788 109.68 171.71 109.477 171.71 109.2V104.32H172.382V109.144C172.382 109.229 172.404 109.296 172.446 109.344C172.494 109.387 172.561 109.408 172.646 109.408H173.014V110H172.542ZM174.987 110.096C174.55 110.096 174.2 109.995 173.939 109.792C173.683 109.589 173.555 109.307 173.555 108.944C173.555 108.581 173.662 108.296 173.875 108.088C174.088 107.88 174.427 107.733 174.891 107.648L176.395 107.368C176.395 107.011 176.31 106.744 176.139 106.568C175.974 106.392 175.723 106.304 175.387 106.304C175.094 106.304 174.862 106.371 174.691 106.504C174.52 106.632 174.403 106.819 174.339 107.064L173.627 107.008C173.707 106.608 173.899 106.285 174.203 106.04C174.512 105.789 174.907 105.664 175.387 105.664C175.931 105.664 176.347 105.819 176.635 106.128C176.923 106.432 177.067 106.853 177.067 107.392V109.144C177.067 109.24 177.083 109.309 177.115 109.352C177.152 109.389 177.211 109.408 177.291 109.408H177.459V110C177.438 110.005 177.403 110.008 177.355 110.008C177.307 110.013 177.256 110.016 177.203 110.016C177.011 110.016 176.854 109.987 176.731 109.928C176.614 109.864 176.528 109.768 176.475 109.64C176.422 109.507 176.395 109.333 176.395 109.12L176.475 109.136C176.438 109.317 176.347 109.483 176.203 109.632C176.059 109.776 175.88 109.891 175.667 109.976C175.454 110.056 175.227 110.096 174.987 110.096ZM175.051 109.504C175.334 109.504 175.574 109.451 175.771 109.344C175.974 109.232 176.128 109.083 176.235 108.896C176.342 108.704 176.395 108.491 176.395 108.256V107.952L175.019 108.208C174.731 108.261 174.531 108.344 174.419 108.456C174.312 108.563 174.259 108.704 174.259 108.88C174.259 109.077 174.328 109.232 174.467 109.344C174.611 109.451 174.806 109.504 175.051 109.504ZM178.218 110V105.76H178.81L178.842 106.832L178.778 106.808C178.831 106.445 178.946 106.181 179.122 106.016C179.303 105.845 179.543 105.76 179.842 105.76H180.258V106.4H179.85C179.637 106.4 179.458 106.44 179.314 106.52C179.175 106.595 179.069 106.709 178.994 106.864C178.925 107.013 178.89 107.205 178.89 107.44V110H178.218ZM182.537 111.296C182.233 111.296 181.958 111.245 181.713 111.144C181.468 111.043 181.262 110.899 181.097 110.712C180.932 110.525 180.82 110.309 180.761 110.064L181.465 110.016C181.529 110.213 181.641 110.368 181.801 110.48C181.966 110.597 182.212 110.656 182.537 110.656C182.921 110.656 183.214 110.579 183.417 110.424C183.625 110.269 183.729 110.037 183.729 109.728V109.04C183.628 109.264 183.465 109.443 183.241 109.576C183.017 109.709 182.766 109.776 182.489 109.776C182.132 109.776 181.812 109.688 181.529 109.512C181.252 109.336 181.033 109.093 180.873 108.784C180.718 108.475 180.641 108.12 180.641 107.72C180.641 107.315 180.718 106.96 180.873 106.656C181.028 106.347 181.241 106.104 181.513 105.928C181.79 105.752 182.105 105.664 182.457 105.664C182.756 105.664 183.022 105.733 183.257 105.872C183.497 106.011 183.665 106.197 183.761 106.432V105.76H184.401V109.712C184.401 110.043 184.326 110.325 184.177 110.56C184.028 110.8 183.814 110.981 183.537 111.104C183.26 111.232 182.926 111.296 182.537 111.296ZM182.521 109.136C182.884 109.136 183.174 109.011 183.393 108.76C183.612 108.504 183.724 108.157 183.729 107.72C183.734 107.427 183.686 107.176 183.585 106.968C183.489 106.755 183.348 106.592 183.161 106.48C182.98 106.363 182.766 106.304 182.521 106.304C182.148 106.304 181.857 106.432 181.649 106.688C181.446 106.939 181.345 107.283 181.345 107.72C181.345 108.157 181.449 108.504 181.657 108.76C181.87 109.011 182.158 109.136 182.521 109.136ZM187.257 110.096C186.857 110.096 186.51 110.005 186.217 109.824C185.929 109.643 185.705 109.387 185.545 109.056C185.39 108.72 185.313 108.328 185.313 107.88C185.313 107.432 185.39 107.043 185.545 106.712C185.705 106.381 185.926 106.125 186.209 105.944C186.497 105.757 186.836 105.664 187.225 105.664C187.593 105.664 187.918 105.752 188.201 105.928C188.484 106.099 188.702 106.349 188.857 106.68C189.017 107.011 189.097 107.413 189.097 107.888V108.088H186.017C186.044 108.541 186.164 108.883 186.377 109.112C186.596 109.341 186.889 109.456 187.257 109.456C187.534 109.456 187.761 109.392 187.937 109.264C188.118 109.131 188.244 108.957 188.313 108.744L189.033 108.8C188.921 109.179 188.708 109.491 188.393 109.736C188.084 109.976 187.705 110.096 187.257 110.096ZM186.017 107.496H188.361C188.329 107.085 188.209 106.784 188.001 106.592C187.798 106.4 187.54 106.304 187.225 106.304C186.9 106.304 186.63 106.405 186.417 106.608C186.209 106.805 186.076 107.101 186.017 107.496ZM193.741 110.096C193.347 110.096 193.003 110.005 192.709 109.824C192.421 109.643 192.197 109.387 192.037 109.056C191.877 108.72 191.797 108.328 191.797 107.88C191.797 107.432 191.877 107.043 192.037 106.712C192.197 106.381 192.421 106.125 192.709 105.944C193.003 105.757 193.347 105.664 193.741 105.664C194.067 105.664 194.355 105.723 194.605 105.84C194.861 105.952 195.069 106.117 195.229 106.336C195.389 106.555 195.493 106.821 195.541 107.136L194.837 107.184C194.789 106.901 194.667 106.685 194.469 106.536C194.272 106.381 194.029 106.304 193.741 106.304C193.352 106.304 193.048 106.445 192.829 106.728C192.611 107.005 192.501 107.389 192.501 107.88C192.501 108.371 192.611 108.757 192.829 109.04C193.048 109.317 193.352 109.456 193.741 109.456C194.029 109.456 194.272 109.376 194.469 109.216C194.667 109.056 194.789 108.816 194.837 108.496L195.541 108.544C195.493 108.859 195.389 109.133 195.229 109.368C195.069 109.597 194.861 109.776 194.605 109.904C194.355 110.032 194.067 110.096 193.741 110.096ZM196.374 110V105.76H196.966L196.998 106.832L196.934 106.808C196.988 106.445 197.102 106.181 197.278 106.016C197.46 105.845 197.7 105.76 197.998 105.76H198.414V106.4H198.006C197.793 106.4 197.614 106.44 197.47 106.52C197.332 106.595 197.225 106.709 197.15 106.864C197.081 107.013 197.046 107.205 197.046 107.44V110H196.374ZM200.741 110.096C200.352 110.096 200.011 110.005 199.717 109.824C199.424 109.643 199.197 109.387 199.037 109.056C198.877 108.72 198.797 108.328 198.797 107.88C198.797 107.427 198.877 107.035 199.037 106.704C199.197 106.373 199.424 106.117 199.717 105.936C200.011 105.755 200.352 105.664 200.741 105.664C201.131 105.664 201.469 105.755 201.757 105.936C202.051 106.117 202.277 106.373 202.437 106.704C202.597 107.035 202.677 107.427 202.677 107.88C202.677 108.328 202.597 108.72 202.437 109.056C202.277 109.387 202.051 109.643 201.757 109.824C201.469 110.005 201.131 110.096 200.741 110.096ZM200.741 109.456C201.131 109.456 201.432 109.317 201.645 109.04C201.864 108.757 201.973 108.371 201.973 107.88C201.973 107.389 201.864 107.005 201.645 106.728C201.432 106.445 201.131 106.304 200.741 106.304C200.352 106.304 200.048 106.445 199.829 106.728C199.611 107.005 199.501 107.389 199.501 107.88C199.501 108.371 199.611 108.757 199.829 109.04C200.048 109.317 200.352 109.456 200.741 109.456ZM205.137 110.096C204.758 110.096 204.436 110.035 204.169 109.912C203.908 109.789 203.702 109.621 203.553 109.408C203.409 109.189 203.326 108.941 203.305 108.664L204.009 108.616C204.052 108.872 204.161 109.077 204.337 109.232C204.513 109.381 204.78 109.456 205.137 109.456C205.425 109.456 205.654 109.411 205.825 109.32C206.001 109.224 206.089 109.072 206.089 108.864C206.089 108.752 206.062 108.659 206.009 108.584C205.956 108.509 205.852 108.445 205.697 108.392C205.542 108.333 205.313 108.277 205.009 108.224C204.604 108.149 204.284 108.059 204.049 107.952C203.82 107.84 203.654 107.704 203.553 107.544C203.457 107.379 203.409 107.184 203.409 106.96C203.409 106.581 203.548 106.272 203.825 106.032C204.102 105.787 204.497 105.664 205.009 105.664C205.356 105.664 205.646 105.728 205.881 105.856C206.121 105.979 206.308 106.144 206.441 106.352C206.58 106.555 206.67 106.779 206.713 107.024L206.009 107.072C205.977 106.923 205.918 106.792 205.833 106.68C205.748 106.563 205.636 106.472 205.497 106.408C205.358 106.339 205.193 106.304 205.001 106.304C204.697 106.304 204.473 106.363 204.329 106.48C204.185 106.597 204.113 106.747 204.113 106.928C204.113 107.067 204.145 107.181 204.209 107.272C204.278 107.357 204.388 107.429 204.537 107.488C204.686 107.541 204.886 107.589 205.137 107.632C205.569 107.707 205.905 107.797 206.145 107.904C206.385 108.011 206.553 108.141 206.649 108.296C206.745 108.451 206.793 108.64 206.793 108.864C206.793 109.125 206.718 109.349 206.569 109.536C206.425 109.717 206.228 109.856 205.977 109.952C205.732 110.048 205.452 110.096 205.137 110.096ZM209.254 110.096C208.876 110.096 208.553 110.035 208.286 109.912C208.025 109.789 207.82 109.621 207.67 109.408C207.526 109.189 207.444 108.941 207.422 108.664L208.126 108.616C208.169 108.872 208.278 109.077 208.454 109.232C208.63 109.381 208.897 109.456 209.254 109.456C209.542 109.456 209.772 109.411 209.942 109.32C210.118 109.224 210.206 109.072 210.206 108.864C210.206 108.752 210.18 108.659 210.126 108.584C210.073 108.509 209.969 108.445 209.814 108.392C209.66 108.333 209.43 108.277 209.126 108.224C208.721 108.149 208.401 108.059 208.166 107.952C207.937 107.84 207.772 107.704 207.67 107.544C207.574 107.379 207.526 107.184 207.526 106.96C207.526 106.581 207.665 106.272 207.942 106.032C208.22 105.787 208.614 105.664 209.126 105.664C209.473 105.664 209.764 105.728 209.998 105.856C210.238 105.979 210.425 106.144 210.558 106.352C210.697 106.555 210.788 106.779 210.83 107.024L210.126 107.072C210.094 106.923 210.036 106.792 209.95 106.68C209.865 106.563 209.753 106.472 209.614 106.408C209.476 106.339 209.31 106.304 209.118 106.304C208.814 106.304 208.59 106.363 208.446 106.48C208.302 106.597 208.23 106.747 208.23 106.928C208.23 107.067 208.262 107.181 208.326 107.272C208.396 107.357 208.505 107.429 208.654 107.488C208.804 107.541 209.004 107.589 209.254 107.632C209.686 107.707 210.022 107.797 210.262 107.904C210.502 108.011 210.67 108.141 210.766 108.296C210.862 108.451 210.91 108.64 210.91 108.864C210.91 109.125 210.836 109.349 210.686 109.536C210.542 109.717 210.345 109.856 210.094 109.952C209.849 110.048 209.569 110.096 209.254 110.096ZM211.618 107.984V107.352H214.266V107.984H211.618ZM215.595 110V105.376C215.595 105.061 215.686 104.808 215.867 104.616C216.048 104.419 216.331 104.32 216.715 104.32H217.387V104.912H216.763C216.598 104.912 216.472 104.957 216.387 105.048C216.307 105.139 216.267 105.264 216.267 105.424V110H215.595ZM215.019 106.352V105.76H217.331V106.352H215.019ZM219.727 110.096C219.306 110.096 218.967 109.955 218.711 109.672C218.461 109.384 218.335 108.989 218.335 108.488V105.76H219.007V108.304C219.007 108.715 219.079 109.019 219.223 109.216C219.373 109.408 219.599 109.504 219.903 109.504C220.239 109.504 220.503 109.397 220.695 109.184C220.887 108.965 220.983 108.667 220.983 108.288V105.76H221.655V110H221.015V108.952L221.119 109.008C221.034 109.355 220.871 109.624 220.631 109.816C220.391 110.003 220.09 110.096 219.727 110.096ZM222.937 110V105.76H223.553L223.577 106.84L223.497 106.768C223.55 106.517 223.644 106.312 223.777 106.152C223.91 105.987 224.07 105.864 224.257 105.784C224.449 105.704 224.654 105.664 224.873 105.664C225.198 105.664 225.465 105.736 225.673 105.88C225.886 106.024 226.044 106.219 226.145 106.464C226.252 106.704 226.305 106.973 226.305 107.272V110H225.633V107.464C225.633 107.203 225.601 106.984 225.537 106.808C225.478 106.627 225.382 106.491 225.249 106.4C225.116 106.304 224.942 106.256 224.729 106.256C224.404 106.256 224.134 106.36 223.921 106.568C223.713 106.771 223.609 107.069 223.609 107.464V110H222.937ZM229.148 110.096C228.753 110.096 228.409 110.005 228.116 109.824C227.828 109.643 227.604 109.387 227.444 109.056C227.284 108.72 227.204 108.328 227.204 107.88C227.204 107.432 227.284 107.043 227.444 106.712C227.604 106.381 227.828 106.125 228.116 105.944C228.409 105.757 228.753 105.664 229.148 105.664C229.473 105.664 229.761 105.723 230.012 105.84C230.268 105.952 230.476 106.117 230.636 106.336C230.796 106.555 230.9 106.821 230.948 107.136L230.244 107.184C230.196 106.901 230.073 106.685 229.876 106.536C229.678 106.381 229.436 106.304 229.148 106.304C228.758 106.304 228.454 106.445 228.236 106.728C228.017 107.005 227.908 107.389 227.908 107.88C227.908 108.371 228.017 108.757 228.236 109.04C228.454 109.317 228.758 109.456 229.148 109.456C229.436 109.456 229.678 109.376 229.876 109.216C230.073 109.056 230.196 108.816 230.244 108.496L230.948 108.544C230.9 108.859 230.796 109.133 230.636 109.368C230.476 109.597 230.268 109.776 230.012 109.904C229.761 110.032 229.473 110.096 229.148 110.096ZM233.169 110C232.785 110 232.499 109.912 232.313 109.736C232.131 109.56 232.041 109.285 232.041 108.912V104.768H232.713V108.896C232.713 109.088 232.755 109.221 232.841 109.296C232.926 109.371 233.057 109.408 233.233 109.408H233.841V110H233.169ZM231.417 106.352V105.76H233.841V106.352H231.417ZM234.703 110V105.76H235.375V110H234.703ZM234.687 105.096V104.312H235.391V105.096H234.687ZM238.234 110.096C237.844 110.096 237.503 110.005 237.21 109.824C236.916 109.643 236.69 109.387 236.53 109.056C236.37 108.72 236.29 108.328 236.29 107.88C236.29 107.427 236.37 107.035 236.53 106.704C236.69 106.373 236.916 106.117 237.21 105.936C237.503 105.755 237.844 105.664 238.234 105.664C238.623 105.664 238.962 105.755 239.25 105.936C239.543 106.117 239.77 106.373 239.93 106.704C240.09 107.035 240.17 107.427 240.17 107.88C240.17 108.328 240.09 108.72 239.93 109.056C239.77 109.387 239.543 109.643 239.25 109.824C238.962 110.005 238.623 110.096 238.234 110.096ZM238.234 109.456C238.623 109.456 238.924 109.317 239.138 109.04C239.356 108.757 239.466 108.371 239.466 107.88C239.466 107.389 239.356 107.005 239.138 106.728C238.924 106.445 238.623 106.304 238.234 106.304C237.844 106.304 237.54 106.445 237.322 106.728C237.103 107.005 236.993 107.389 236.993 107.88C236.993 108.371 237.103 108.757 237.322 109.04C237.54 109.317 237.844 109.456 238.234 109.456ZM241.085 110V105.76H241.701L241.725 106.84L241.645 106.768C241.699 106.517 241.792 106.312 241.925 106.152C242.059 105.987 242.219 105.864 242.405 105.784C242.597 105.704 242.803 105.664 243.021 105.664C243.347 105.664 243.613 105.736 243.821 105.88C244.035 106.024 244.192 106.219 244.293 106.464C244.4 106.704 244.453 106.973 244.453 107.272V110H243.781V107.464C243.781 107.203 243.749 106.984 243.685 106.808C243.627 106.627 243.531 106.491 243.397 106.4C243.264 106.304 243.091 106.256 242.877 106.256C242.552 106.256 242.283 106.36 242.069 106.568C241.861 106.771 241.757 107.069 241.757 107.464V110H241.085ZM246.8 110.096C246.362 110.096 246.013 109.995 245.752 109.792C245.496 109.589 245.368 109.307 245.368 108.944C245.368 108.581 245.474 108.296 245.688 108.088C245.901 107.88 246.24 107.733 246.704 107.648L248.208 107.368C248.208 107.011 248.122 106.744 247.952 106.568C247.786 106.392 247.536 106.304 247.2 106.304C246.906 106.304 246.674 106.371 246.504 106.504C246.333 106.632 246.216 106.819 246.152 107.064L245.44 107.008C245.52 106.608 245.712 106.285 246.016 106.04C246.325 105.789 246.72 105.664 247.2 105.664C247.744 105.664 248.16 105.819 248.448 106.128C248.736 106.432 248.88 106.853 248.88 107.392V109.144C248.88 109.24 248.896 109.309 248.928 109.352C248.965 109.389 249.024 109.408 249.104 109.408H249.272V110C249.25 110.005 249.216 110.008 249.168 110.008C249.12 110.013 249.069 110.016 249.016 110.016C248.824 110.016 248.666 109.987 248.544 109.928C248.426 109.864 248.341 109.768 248.288 109.64C248.234 109.507 248.208 109.333 248.208 109.12L248.288 109.136C248.25 109.317 248.16 109.483 248.016 109.632C247.872 109.776 247.693 109.891 247.48 109.976C247.266 110.056 247.04 110.096 246.8 110.096ZM246.864 109.504C247.146 109.504 247.386 109.451 247.584 109.344C247.786 109.232 247.941 109.083 248.048 108.896C248.154 108.704 248.208 108.491 248.208 108.256V107.952L246.832 108.208C246.544 108.261 246.344 108.344 246.232 108.456C246.125 108.563 246.072 108.704 246.072 108.88C246.072 109.077 246.141 109.232 246.28 109.344C246.424 109.451 246.618 109.504 246.864 109.504ZM250.816 110C250.57 110 250.37 109.936 250.216 109.808C250.061 109.68 249.984 109.477 249.984 109.2V104.32H250.656V109.144C250.656 109.229 250.677 109.296 250.72 109.344C250.768 109.387 250.834 109.408 250.92 109.408H251.288V110H250.816ZM255.669 110C255.285 110 254.999 109.912 254.813 109.736C254.631 109.56 254.541 109.285 254.541 108.912V104.768H255.213V108.896C255.213 109.088 255.255 109.221 255.341 109.296C255.426 109.371 255.557 109.408 255.733 109.408H256.341V110H255.669ZM253.917 106.352V105.76H256.341V106.352H253.917ZM258.78 110.096C258.38 110.096 258.034 110.005 257.74 109.824C257.452 109.643 257.228 109.387 257.068 109.056C256.914 108.72 256.836 108.328 256.836 107.88C256.836 107.432 256.914 107.043 257.068 106.712C257.228 106.381 257.45 106.125 257.732 105.944C258.02 105.757 258.359 105.664 258.748 105.664C259.116 105.664 259.442 105.752 259.724 105.928C260.007 106.099 260.226 106.349 260.38 106.68C260.54 107.011 260.62 107.413 260.62 107.888V108.088H257.54C257.567 108.541 257.687 108.883 257.9 109.112C258.119 109.341 258.412 109.456 258.78 109.456C259.058 109.456 259.284 109.392 259.46 109.264C259.642 109.131 259.767 108.957 259.836 108.744L260.556 108.8C260.444 109.179 260.231 109.491 259.916 109.736C259.607 109.976 259.228 110.096 258.78 110.096ZM257.54 107.496H259.884C259.852 107.085 259.732 106.784 259.524 106.592C259.322 106.4 259.063 106.304 258.748 106.304C258.423 106.304 258.154 106.405 257.94 106.608C257.732 106.805 257.599 107.101 257.54 107.496ZM262.784 110.096C262.347 110.096 261.997 109.995 261.736 109.792C261.48 109.589 261.352 109.307 261.352 108.944C261.352 108.581 261.459 108.296 261.672 108.088C261.885 107.88 262.224 107.733 262.688 107.648L264.192 107.368C264.192 107.011 264.107 106.744 263.936 106.568C263.771 106.392 263.52 106.304 263.184 106.304C262.891 106.304 262.659 106.371 262.488 106.504C262.317 106.632 262.2 106.819 262.136 107.064L261.424 107.008C261.504 106.608 261.696 106.285 262 106.04C262.309 105.789 262.704 105.664 263.184 105.664C263.728 105.664 264.144 105.819 264.432 106.128C264.72 106.432 264.864 106.853 264.864 107.392V109.144C264.864 109.24 264.88 109.309 264.912 109.352C264.949 109.389 265.008 109.408 265.088 109.408H265.256V110C265.235 110.005 265.2 110.008 265.152 110.008C265.104 110.013 265.053 110.016 265 110.016C264.808 110.016 264.651 109.987 264.528 109.928C264.411 109.864 264.325 109.768 264.272 109.64C264.219 109.507 264.192 109.333 264.192 109.12L264.272 109.136C264.235 109.317 264.144 109.483 264 109.632C263.856 109.776 263.677 109.891 263.464 109.976C263.251 110.056 263.024 110.096 262.784 110.096ZM262.848 109.504C263.131 109.504 263.371 109.451 263.568 109.344C263.771 109.232 263.925 109.083 264.032 108.896C264.139 108.704 264.192 108.491 264.192 108.256V107.952L262.816 108.208C262.528 108.261 262.328 108.344 262.216 108.456C262.109 108.563 262.056 108.704 262.056 108.88C262.056 109.077 262.125 109.232 262.264 109.344C262.408 109.451 262.603 109.504 262.848 109.504ZM266.015 110V105.76H266.631L266.655 106.832L266.559 106.8C266.607 106.565 266.69 106.365 266.807 106.2C266.93 106.029 267.079 105.899 267.255 105.808C267.431 105.712 267.626 105.664 267.839 105.664C268.207 105.664 268.506 105.765 268.735 105.968C268.97 106.171 269.116 106.453 269.175 106.816L269.047 106.808C269.09 106.563 269.167 106.357 269.279 106.192C269.396 106.021 269.546 105.891 269.727 105.8C269.908 105.709 270.116 105.664 270.351 105.664C270.655 105.664 270.911 105.728 271.119 105.856C271.327 105.979 271.484 106.16 271.591 106.4C271.698 106.64 271.751 106.931 271.751 107.272V110H271.079V107.416C271.079 107.032 271.004 106.744 270.855 106.552C270.706 106.355 270.484 106.256 270.191 106.256C269.994 106.256 269.82 106.304 269.671 106.4C269.527 106.496 269.415 106.635 269.335 106.816C269.255 106.992 269.215 107.208 269.215 107.464V110H268.543V107.464C268.543 107.085 268.476 106.789 268.343 106.576C268.21 106.363 267.986 106.256 267.671 106.256C267.474 106.256 267.3 106.304 267.151 106.4C267.007 106.496 266.892 106.635 266.807 106.816C266.727 106.997 266.687 107.213 266.687 107.464V110H266.015ZM274.481 110.096C274.102 110.096 273.78 110.035 273.513 109.912C273.252 109.789 273.046 109.621 272.897 109.408C272.753 109.189 272.67 108.941 272.649 108.664L273.353 108.616C273.396 108.872 273.505 109.077 273.681 109.232C273.857 109.381 274.124 109.456 274.481 109.456C274.769 109.456 274.998 109.411 275.169 109.32C275.345 109.224 275.433 109.072 275.433 108.864C275.433 108.752 275.406 108.659 275.353 108.584C275.3 108.509 275.196 108.445 275.041 108.392C274.886 108.333 274.657 108.277 274.353 108.224C273.948 108.149 273.628 108.059 273.393 107.952C273.164 107.84 272.998 107.704 272.897 107.544C272.801 107.379 272.753 107.184 272.753 106.96C272.753 106.581 272.892 106.272 273.169 106.032C273.446 105.787 273.841 105.664 274.353 105.664C274.7 105.664 274.99 105.728 275.225 105.856C275.465 105.979 275.652 106.144 275.785 106.352C275.924 106.555 276.014 106.779 276.057 107.024L275.353 107.072C275.321 106.923 275.262 106.792 275.177 106.68C275.092 106.563 274.98 106.472 274.841 106.408C274.702 106.339 274.537 106.304 274.345 106.304C274.041 106.304 273.817 106.363 273.673 106.48C273.529 106.597 273.457 106.747 273.457 106.928C273.457 107.067 273.489 107.181 273.553 107.272C273.622 107.357 273.732 107.429 273.881 107.488C274.03 107.541 274.23 107.589 274.481 107.632C274.913 107.707 275.249 107.797 275.489 107.904C275.729 108.011 275.897 108.141 275.993 108.296C276.089 108.451 276.137 108.64 276.137 108.864C276.137 109.125 276.062 109.349 275.913 109.536C275.769 109.717 275.572 109.856 275.321 109.952C275.076 110.048 274.796 110.096 274.481 110.096ZM279.964 110.88C279.223 109.765 278.852 108.619 278.852 107.44C278.852 106.256 279.223 105.109 279.964 104H280.564C279.887 105.152 279.548 106.299 279.548 107.44C279.548 108.011 279.634 108.584 279.804 109.16C279.975 109.731 280.228 110.304 280.564 110.88H279.964ZM282.192 110V105.792H281.008V105.2H281.488C281.696 105.2 281.861 105.173 281.984 105.12C282.112 105.067 282.202 104.976 282.256 104.848C282.309 104.72 282.336 104.544 282.336 104.32H282.88V110H282.192ZM286.328 110.128C285.869 110.128 285.472 110.008 285.136 109.768C284.8 109.528 284.538 109.187 284.352 108.744C284.17 108.301 284.08 107.776 284.08 107.168C284.08 106.56 284.17 106.035 284.352 105.592C284.538 105.144 284.8 104.8 285.136 104.56C285.472 104.315 285.869 104.192 286.328 104.192C286.792 104.192 287.192 104.315 287.528 104.56C287.864 104.8 288.122 105.141 288.304 105.584C288.49 106.027 288.584 106.555 288.584 107.168C288.584 107.776 288.49 108.301 288.304 108.744C288.122 109.187 287.864 109.528 287.528 109.768C287.192 110.008 286.792 110.128 286.328 110.128ZM286.328 109.456C286.818 109.456 287.197 109.259 287.464 108.864C287.73 108.464 287.864 107.899 287.864 107.168C287.864 106.677 287.802 106.261 287.68 105.92C287.562 105.573 287.389 105.312 287.16 105.136C286.936 104.955 286.658 104.864 286.328 104.864C286.002 104.864 285.725 104.955 285.496 105.136C285.272 105.312 285.098 105.573 284.976 105.92C284.858 106.261 284.8 106.677 284.8 107.168C284.8 107.899 284.933 108.464 285.2 108.864C285.466 109.259 285.842 109.456 286.328 109.456ZM290.904 109.552V105.728H291.528V109.552H290.904ZM289.304 107.952V107.328H293.128V107.952H289.304ZM296.085 111.2V105.76H296.709L296.725 106.672L296.629 106.624C296.736 106.309 296.912 106.072 297.157 105.912C297.408 105.747 297.696 105.664 298.021 105.664C298.443 105.664 298.787 105.768 299.053 105.976C299.325 106.184 299.525 106.456 299.653 106.792C299.787 107.128 299.853 107.491 299.853 107.88C299.853 108.269 299.787 108.632 299.653 108.968C299.525 109.304 299.325 109.576 299.053 109.784C298.787 109.992 298.443 110.096 298.021 110.096C297.803 110.096 297.597 110.059 297.405 109.984C297.219 109.909 297.059 109.805 296.925 109.672C296.797 109.539 296.709 109.381 296.661 109.2L296.757 109.088V111.2H296.085ZM297.957 109.456C298.325 109.456 298.616 109.317 298.829 109.04C299.043 108.763 299.149 108.376 299.149 107.88C299.149 107.384 299.043 106.997 298.829 106.72C298.616 106.443 298.325 106.304 297.957 106.304C297.712 106.304 297.499 106.363 297.317 106.48C297.141 106.597 297.003 106.773 296.901 107.008C296.805 107.243 296.757 107.533 296.757 107.88C296.757 108.227 296.805 108.517 296.901 108.752C296.997 108.987 297.136 109.163 297.317 109.28C297.499 109.397 297.712 109.456 297.957 109.456ZM302.421 110.096C302.021 110.096 301.674 110.005 301.381 109.824C301.093 109.643 300.869 109.387 300.709 109.056C300.554 108.72 300.477 108.328 300.477 107.88C300.477 107.432 300.554 107.043 300.709 106.712C300.869 106.381 301.09 106.125 301.373 105.944C301.661 105.757 302 105.664 302.389 105.664C302.757 105.664 303.082 105.752 303.365 105.928C303.648 106.099 303.866 106.349 304.021 106.68C304.181 107.011 304.261 107.413 304.261 107.888V108.088H301.181C301.208 108.541 301.328 108.883 301.541 109.112C301.76 109.341 302.053 109.456 302.421 109.456C302.698 109.456 302.925 109.392 303.101 109.264C303.282 109.131 303.408 108.957 303.477 108.744L304.197 108.8C304.085 109.179 303.872 109.491 303.557 109.736C303.248 109.976 302.869 110.096 302.421 110.096ZM301.181 107.496H303.525C303.493 107.085 303.373 106.784 303.165 106.592C302.962 106.4 302.704 106.304 302.389 106.304C302.064 106.304 301.794 106.405 301.581 106.608C301.373 106.805 301.24 107.101 301.181 107.496ZM306.827 110.096C306.438 110.096 306.097 110.005 305.803 109.824C305.51 109.643 305.283 109.387 305.123 109.056C304.963 108.72 304.883 108.328 304.883 107.88C304.883 107.427 304.963 107.035 305.123 106.704C305.283 106.373 305.51 106.117 305.803 105.936C306.097 105.755 306.438 105.664 306.827 105.664C307.217 105.664 307.555 105.755 307.843 105.936C308.137 106.117 308.363 106.373 308.523 106.704C308.683 107.035 308.763 107.427 308.763 107.88C308.763 108.328 308.683 108.72 308.523 109.056C308.363 109.387 308.137 109.643 307.843 109.824C307.555 110.005 307.217 110.096 306.827 110.096ZM306.827 109.456C307.217 109.456 307.518 109.317 307.731 109.04C307.95 108.757 308.059 108.371 308.059 107.88C308.059 107.389 307.95 107.005 307.731 106.728C307.518 106.445 307.217 106.304 306.827 106.304C306.438 106.304 306.134 106.445 305.915 106.728C305.697 107.005 305.587 107.389 305.587 107.88C305.587 108.371 305.697 108.757 305.915 109.04C306.134 109.317 306.438 109.456 306.827 109.456ZM309.679 111.2V105.76H310.303L310.319 106.672L310.223 106.624C310.33 106.309 310.506 106.072 310.751 105.912C311.002 105.747 311.29 105.664 311.615 105.664C312.036 105.664 312.38 105.768 312.647 105.976C312.919 106.184 313.119 106.456 313.247 106.792C313.38 107.128 313.447 107.491 313.447 107.88C313.447 108.269 313.38 108.632 313.247 108.968C313.119 109.304 312.919 109.576 312.647 109.784C312.38 109.992 312.036 110.096 311.615 110.096C311.396 110.096 311.191 110.059 310.999 109.984C310.812 109.909 310.652 109.805 310.519 109.672C310.391 109.539 310.303 109.381 310.255 109.2L310.351 109.088V111.2H309.679ZM311.551 109.456C311.919 109.456 312.21 109.317 312.423 109.04C312.636 108.763 312.743 108.376 312.743 107.88C312.743 107.384 312.636 106.997 312.423 106.72C312.21 106.443 311.919 106.304 311.551 106.304C311.306 106.304 311.092 106.363 310.911 106.48C310.735 106.597 310.596 106.773 310.495 107.008C310.399 107.243 310.351 107.533 310.351 107.88C310.351 108.227 310.399 108.517 310.495 108.752C310.591 108.987 310.73 109.163 310.911 109.28C311.092 109.397 311.306 109.456 311.551 109.456ZM315.23 110C314.984 110 314.784 109.936 314.63 109.808C314.475 109.68 314.398 109.477 314.398 109.2V104.32H315.07V109.144C315.07 109.229 315.091 109.296 315.134 109.344C315.182 109.387 315.248 109.408 315.334 109.408H315.702V110H315.23ZM318.14 110.096C317.74 110.096 317.393 110.005 317.1 109.824C316.812 109.643 316.588 109.387 316.428 109.056C316.273 108.72 316.196 108.328 316.196 107.88C316.196 107.432 316.273 107.043 316.428 106.712C316.588 106.381 316.809 106.125 317.092 105.944C317.38 105.757 317.718 105.664 318.108 105.664C318.476 105.664 318.801 105.752 319.084 105.928C319.366 106.099 319.585 106.349 319.74 106.68C319.9 107.011 319.98 107.413 319.98 107.888V108.088H316.9C316.926 108.541 317.046 108.883 317.26 109.112C317.478 109.341 317.772 109.456 318.14 109.456C318.417 109.456 318.644 109.392 318.82 109.264C319.001 109.131 319.126 108.957 319.196 108.744L319.916 108.8C319.804 109.179 319.59 109.491 319.276 109.736C318.966 109.976 318.588 110.096 318.14 110.096ZM316.9 107.496H319.244C319.212 107.085 319.092 106.784 318.884 106.592C318.681 106.4 318.422 106.304 318.108 106.304C317.782 106.304 317.513 106.405 317.3 106.608C317.092 106.805 316.958 107.101 316.9 107.496ZM321.048 110.88H320.448C320.784 110.304 321.037 109.731 321.208 109.16C321.379 108.584 321.464 108.011 321.464 107.44C321.464 106.299 321.125 105.152 320.448 104H321.048C321.789 105.109 322.16 106.256 322.16 107.44C322.16 108.619 321.789 109.765 321.048 110.88Z" fill="#0F172A"/>
<rect x="43" y="121" width="375" height="28" rx="4" fill="#FEFEFF"/>
<path d="M53.216 138L51.16 132.32H51.912L53.672 137.248L55.424 132.32H56.176L54.12 138H53.216ZM57.7606 138.096C57.3232 138.096 56.9739 137.995 56.7126 137.792C56.4566 137.589 56.3286 137.307 56.3286 136.944C56.3286 136.581 56.4352 136.296 56.6486 136.088C56.8619 135.88 57.2006 135.733 57.6646 135.648L59.1686 135.368C59.1686 135.011 59.0832 134.744 58.9126 134.568C58.7472 134.392 58.4966 134.304 58.1606 134.304C57.8672 134.304 57.6352 134.371 57.4646 134.504C57.2939 134.632 57.1766 134.819 57.1126 135.064L56.4006 135.008C56.4806 134.608 56.6726 134.285 56.9766 134.04C57.2859 133.789 57.6806 133.664 58.1606 133.664C58.7046 133.664 59.1206 133.819 59.4086 134.128C59.6966 134.432 59.8406 134.853 59.8406 135.392V137.144C59.8406 137.24 59.8566 137.309 59.8886 137.352C59.9259 137.389 59.9846 137.408 60.0646 137.408H60.2326V138C60.2112 138.005 60.1766 138.008 60.1286 138.008C60.0806 138.013 60.0299 138.016 59.9766 138.016C59.7846 138.016 59.6272 137.987 59.5046 137.928C59.3872 137.864 59.3019 137.768 59.2486 137.64C59.1952 137.507 59.1686 137.333 59.1686 137.12L59.2486 137.136C59.2112 137.317 59.1206 137.483 58.9766 137.632C58.8326 137.776 58.6539 137.891 58.4406 137.976C58.2272 138.056 58.0006 138.096 57.7606 138.096ZM57.8246 137.504C58.1072 137.504 58.3472 137.451 58.5446 137.344C58.7472 137.232 58.9019 137.083 59.0086 136.896C59.1152 136.704 59.1686 136.491 59.1686 136.256V135.952L57.7926 136.208C57.5046 136.261 57.3046 136.344 57.1926 136.456C57.0859 136.563 57.0326 136.704 57.0326 136.88C57.0326 137.077 57.1019 137.232 57.2406 137.344C57.3846 137.451 57.5792 137.504 57.8246 137.504ZM62.5839 139.296C62.2799 139.296 62.0053 139.245 61.7599 139.144C61.5146 139.043 61.3093 138.899 61.1439 138.712C60.9786 138.525 60.8666 138.309 60.8079 138.064L61.5119 138.016C61.5759 138.213 61.6879 138.368 61.8479 138.48C62.0133 138.597 62.2586 138.656 62.5839 138.656C62.9679 138.656 63.2613 138.579 63.4639 138.424C63.6719 138.269 63.7759 138.037 63.7759 137.728V137.04C63.6746 137.264 63.5119 137.443 63.2879 137.576C63.0639 137.709 62.8133 137.776 62.5359 137.776C62.1786 137.776 61.8586 137.688 61.5759 137.512C61.2986 137.336 61.0799 137.093 60.9199 136.784C60.7653 136.475 60.6879 136.12 60.6879 135.72C60.6879 135.315 60.7653 134.96 60.9199 134.656C61.0746 134.347 61.2879 134.104 61.5599 133.928C61.8373 133.752 62.1519 133.664 62.5039 133.664C62.8026 133.664 63.0693 133.733 63.3039 133.872C63.5439 134.011 63.7119 134.197 63.8079 134.432V133.76H64.4479V137.712C64.4479 138.043 64.3733 138.325 64.2239 138.56C64.0746 138.8 63.8613 138.981 63.5839 139.104C63.3066 139.232 62.9733 139.296 62.5839 139.296ZM62.5679 137.136C62.9306 137.136 63.2213 137.011 63.4399 136.76C63.6586 136.504 63.7706 136.157 63.7759 135.72C63.7813 135.427 63.7333 135.176 63.6319 134.968C63.5359 134.755 63.3946 134.592 63.2079 134.48C63.0266 134.363 62.8133 134.304 62.5679 134.304C62.1946 134.304 61.9039 134.432 61.6959 134.688C61.4933 134.939 61.3919 135.283 61.3919 135.72C61.3919 136.157 61.4959 136.504 61.7039 136.76C61.9173 137.011 62.2053 137.136 62.5679 137.136ZM67.1179 138.096C66.6966 138.096 66.3579 137.955 66.1019 137.672C65.8513 137.384 65.7259 136.989 65.7259 136.488V133.76H66.3979V136.304C66.3979 136.715 66.4699 137.019 66.6139 137.216C66.7633 137.408 66.9899 137.504 67.2939 137.504C67.6299 137.504 67.8939 137.397 68.0859 137.184C68.2779 136.965 68.3739 136.667 68.3739 136.288V133.76H69.0459V138H68.4059V136.952L68.5099 137.008C68.4246 137.355 68.2619 137.624 68.0219 137.816C67.7819 138.003 67.4806 138.096 67.1179 138.096ZM71.9054 138.096C71.5054 138.096 71.1587 138.005 70.8654 137.824C70.5774 137.643 70.3534 137.387 70.1934 137.056C70.0387 136.72 69.9614 136.328 69.9614 135.88C69.9614 135.432 70.0387 135.043 70.1934 134.712C70.3534 134.381 70.5747 134.125 70.8574 133.944C71.1454 133.757 71.484 133.664 71.8734 133.664C72.2414 133.664 72.5667 133.752 72.8494 133.928C73.132 134.099 73.3507 134.349 73.5054 134.68C73.6654 135.011 73.7454 135.413 73.7454 135.888V136.088H70.6654C70.692 136.541 70.812 136.883 71.0254 137.112C71.244 137.341 71.5374 137.456 71.9054 137.456C72.1827 137.456 72.4094 137.392 72.5854 137.264C72.7667 137.131 72.892 136.957 72.9614 136.744L73.6814 136.8C73.5694 137.179 73.356 137.491 73.0414 137.736C72.732 137.976 72.3534 138.096 71.9054 138.096ZM70.6654 135.496H73.0094C72.9774 135.085 72.8574 134.784 72.6494 134.592C72.4467 134.4 72.188 134.304 71.8734 134.304C71.548 134.304 71.2787 134.405 71.0654 134.608C70.8574 134.805 70.724 135.101 70.6654 135.496ZM78.3898 138.096C78.0004 138.096 77.6591 138.005 77.3658 137.824C77.0724 137.643 76.8458 137.387 76.6858 137.056C76.5258 136.72 76.4458 136.328 76.4458 135.88C76.4458 135.427 76.5258 135.035 76.6858 134.704C76.8458 134.373 77.0724 134.117 77.3658 133.936C77.6591 133.755 78.0004 133.664 78.3898 133.664C78.7791 133.664 79.1178 133.755 79.4058 133.936C79.6991 134.117 79.9258 134.373 80.0858 134.704C80.2458 135.035 80.3258 135.427 80.3258 135.88C80.3258 136.328 80.2458 136.72 80.0858 137.056C79.9258 137.387 79.6991 137.643 79.4058 137.824C79.1178 138.005 78.7791 138.096 78.3898 138.096ZM78.3898 137.456C78.7791 137.456 79.0804 137.317 79.2938 137.04C79.5124 136.757 79.6218 136.371 79.6218 135.88C79.6218 135.389 79.5124 135.005 79.2938 134.728C79.0804 134.445 78.7791 134.304 78.3898 134.304C78.0004 134.304 77.6964 134.445 77.4778 134.728C77.2591 135.005 77.1497 135.389 77.1497 135.88C77.1497 136.371 77.2591 136.757 77.4778 137.04C77.6964 137.317 78.0004 137.456 78.3898 137.456ZM81.2416 138V133.76H81.8576L81.8816 134.84L81.8016 134.768C81.8549 134.517 81.9482 134.312 82.0816 134.152C82.2149 133.987 82.3749 133.864 82.5616 133.784C82.7536 133.704 82.9589 133.664 83.1776 133.664C83.5029 133.664 83.7696 133.736 83.9776 133.88C84.1909 134.024 84.3482 134.219 84.4496 134.464C84.5562 134.704 84.6096 134.973 84.6096 135.272V138H83.9376V135.464C83.9376 135.203 83.9056 134.984 83.8416 134.808C83.7829 134.627 83.6869 134.491 83.5536 134.4C83.4202 134.304 83.2469 134.256 83.0336 134.256C82.7082 134.256 82.4389 134.36 82.2256 134.568C82.0176 134.771 81.9136 135.069 81.9136 135.464V138H81.2416ZM87.89 138V133.76H88.506L88.53 134.832L88.434 134.8C88.482 134.565 88.5647 134.365 88.682 134.2C88.8047 134.029 88.954 133.899 89.13 133.808C89.306 133.712 89.5007 133.664 89.714 133.664C90.082 133.664 90.3807 133.765 90.61 133.968C90.8447 134.171 90.9913 134.453 91.05 134.816L90.922 134.808C90.9647 134.563 91.042 134.357 91.154 134.192C91.2713 134.021 91.4207 133.891 91.602 133.8C91.7833 133.709 91.9913 133.664 92.226 133.664C92.53 133.664 92.786 133.728 92.994 133.856C93.202 133.979 93.3593 134.16 93.466 134.4C93.5727 134.64 93.626 134.931 93.626 135.272V138H92.954V135.416C92.954 135.032 92.8793 134.744 92.73 134.552C92.5807 134.355 92.3593 134.256 92.066 134.256C91.8687 134.256 91.6953 134.304 91.546 134.4C91.402 134.496 91.29 134.635 91.21 134.816C91.13 134.992 91.09 135.208 91.09 135.464V138H90.418V135.464C90.418 135.085 90.3513 134.789 90.218 134.576C90.0847 134.363 89.8607 134.256 89.546 134.256C89.3487 134.256 89.1753 134.304 89.026 134.4C88.882 134.496 88.7673 134.635 88.682 134.816C88.602 134.997 88.562 135.213 88.562 135.464V138H87.89ZM96.4679 138.096C96.0679 138.096 95.7212 138.005 95.4279 137.824C95.1399 137.643 94.9159 137.387 94.7559 137.056C94.6012 136.72 94.5239 136.328 94.5239 135.88C94.5239 135.432 94.6012 135.043 94.7559 134.712C94.9159 134.381 95.1372 134.125 95.4199 133.944C95.7079 133.757 96.0465 133.664 96.4359 133.664C96.8039 133.664 97.1292 133.752 97.4119 133.928C97.6945 134.099 97.9132 134.349 98.0679 134.68C98.2279 135.011 98.3079 135.413 98.3079 135.888V136.088H95.2279C95.2545 136.541 95.3745 136.883 95.5879 137.112C95.8065 137.341 96.0999 137.456 96.4679 137.456C96.7452 137.456 96.9719 137.392 97.1479 137.264C97.3292 137.131 97.4545 136.957 97.5239 136.744L98.2439 136.8C98.1319 137.179 97.9185 137.491 97.6039 137.736C97.2945 137.976 96.9159 138.096 96.4679 138.096ZM95.2279 135.496H97.5719C97.5399 135.085 97.4199 134.784 97.2119 134.592C97.0092 134.4 96.7505 134.304 96.4359 134.304C96.1105 134.304 95.8412 134.405 95.6279 134.608C95.4199 134.805 95.2865 135.101 95.2279 135.496ZM100.606 138C100.222 138 99.9367 137.912 99.7501 137.736C99.5687 137.56 99.4781 137.285 99.4781 136.912V132.768H100.15V136.896C100.15 137.088 100.193 137.221 100.278 137.296C100.363 137.371 100.494 137.408 100.67 137.408H101.278V138H100.606ZM98.8541 134.352V133.76H101.278V134.352H98.8541ZM102.226 138V133.76H102.818L102.85 134.832L102.786 134.808C102.839 134.445 102.954 134.181 103.13 134.016C103.311 133.845 103.551 133.76 103.85 133.76H104.266V134.4H103.858C103.645 134.4 103.466 134.44 103.322 134.52C103.183 134.595 103.077 134.709 103.002 134.864C102.933 135.013 102.898 135.205 102.898 135.44V138H102.226ZM105.015 138V133.76H105.687V138H105.015ZM104.999 133.096V132.312H105.703V133.096H104.999ZM108.546 138.096C108.151 138.096 107.807 138.005 107.514 137.824C107.226 137.643 107.002 137.387 106.842 137.056C106.682 136.72 106.602 136.328 106.602 135.88C106.602 135.432 106.682 135.043 106.842 134.712C107.002 134.381 107.226 134.125 107.514 133.944C107.807 133.757 108.151 133.664 108.546 133.664C108.871 133.664 109.159 133.723 109.41 133.84C109.666 133.952 109.874 134.117 110.034 134.336C110.194 134.555 110.298 134.821 110.346 135.136L109.642 135.184C109.594 134.901 109.471 134.685 109.274 134.536C109.077 134.381 108.834 134.304 108.546 134.304C108.157 134.304 107.853 134.445 107.634 134.728C107.415 135.005 107.306 135.389 107.306 135.88C107.306 136.371 107.415 136.757 107.634 137.04C107.853 137.317 108.157 137.456 108.546 137.456C108.834 137.456 109.077 137.376 109.274 137.216C109.471 137.056 109.594 136.816 109.642 136.496L110.346 136.544C110.298 136.859 110.194 137.133 110.034 137.368C109.874 137.597 109.666 137.776 109.41 137.904C109.159 138.032 108.871 138.096 108.546 138.096ZM112.723 138.096C112.344 138.096 112.022 138.035 111.755 137.912C111.494 137.789 111.288 137.621 111.139 137.408C110.995 137.189 110.912 136.941 110.891 136.664L111.595 136.616C111.638 136.872 111.747 137.077 111.923 137.232C112.099 137.381 112.366 137.456 112.723 137.456C113.011 137.456 113.24 137.411 113.411 137.32C113.587 137.224 113.675 137.072 113.675 136.864C113.675 136.752 113.648 136.659 113.595 136.584C113.542 136.509 113.438 136.445 113.283 136.392C113.128 136.333 112.899 136.277 112.595 136.224C112.19 136.149 111.87 136.059 111.635 135.952C111.406 135.84 111.24 135.704 111.139 135.544C111.043 135.379 110.995 135.184 110.995 134.96C110.995 134.581 111.134 134.272 111.411 134.032C111.688 133.787 112.083 133.664 112.595 133.664C112.942 133.664 113.232 133.728 113.467 133.856C113.707 133.979 113.894 134.144 114.027 134.352C114.166 134.555 114.256 134.779 114.299 135.024L113.595 135.072C113.563 134.923 113.504 134.792 113.419 134.68C113.334 134.563 113.222 134.472 113.083 134.408C112.944 134.339 112.779 134.304 112.587 134.304C112.283 134.304 112.059 134.363 111.915 134.48C111.771 134.597 111.699 134.747 111.699 134.928C111.699 135.067 111.731 135.181 111.795 135.272C111.864 135.357 111.974 135.429 112.123 135.488C112.272 135.541 112.472 135.589 112.723 135.632C113.155 135.707 113.491 135.797 113.731 135.904C113.971 136.011 114.139 136.141 114.235 136.296C114.331 136.451 114.379 136.64 114.379 136.864C114.379 137.125 114.304 137.349 114.155 137.536C114.011 137.717 113.814 137.856 113.563 137.952C113.318 138.048 113.038 138.096 112.723 138.096ZM118.518 138.096C118.081 138.096 117.732 137.995 117.47 137.792C117.214 137.589 117.086 137.307 117.086 136.944C117.086 136.581 117.193 136.296 117.406 136.088C117.62 135.88 117.958 135.733 118.422 135.648L119.926 135.368C119.926 135.011 119.841 134.744 119.67 134.568C119.505 134.392 119.254 134.304 118.918 134.304C118.625 134.304 118.393 134.371 118.222 134.504C118.052 134.632 117.934 134.819 117.87 135.064L117.158 135.008C117.238 134.608 117.43 134.285 117.734 134.04C118.044 133.789 118.438 133.664 118.918 133.664C119.462 133.664 119.878 133.819 120.166 134.128C120.454 134.432 120.598 134.853 120.598 135.392V137.144C120.598 137.24 120.614 137.309 120.646 137.352C120.684 137.389 120.742 137.408 120.822 137.408H120.99V138C120.969 138.005 120.934 138.008 120.886 138.008C120.838 138.013 120.788 138.016 120.734 138.016C120.542 138.016 120.385 137.987 120.262 137.928C120.145 137.864 120.06 137.768 120.006 137.64C119.953 137.507 119.926 137.333 119.926 137.12L120.006 137.136C119.969 137.317 119.878 137.483 119.734 137.632C119.59 137.776 119.412 137.891 119.198 137.976C118.985 138.056 118.758 138.096 118.518 138.096ZM118.582 137.504C118.865 137.504 119.105 137.451 119.302 137.344C119.505 137.232 119.66 137.083 119.766 136.896C119.873 136.704 119.926 136.491 119.926 136.256V135.952L118.55 136.208C118.262 136.261 118.062 136.344 117.95 136.456C117.844 136.563 117.79 136.704 117.79 136.88C117.79 137.077 117.86 137.232 117.998 137.344C118.142 137.451 118.337 137.504 118.582 137.504ZM121.749 138V133.76H122.365L122.389 134.84L122.309 134.768C122.363 134.517 122.456 134.312 122.589 134.152C122.723 133.987 122.883 133.864 123.069 133.784C123.261 133.704 123.467 133.664 123.685 133.664C124.011 133.664 124.277 133.736 124.485 133.88C124.699 134.024 124.856 134.219 124.957 134.464C125.064 134.704 125.117 134.973 125.117 135.272V138H124.445V135.464C124.445 135.203 124.413 134.984 124.349 134.808C124.291 134.627 124.195 134.491 124.061 134.4C123.928 134.304 123.755 134.256 123.541 134.256C123.216 134.256 122.947 134.36 122.733 134.568C122.525 134.771 122.421 135.069 122.421 135.464V138H121.749ZM127.808 138.096C127.44 138.096 127.12 138.005 126.848 137.824C126.581 137.643 126.376 137.387 126.232 137.056C126.088 136.725 126.016 136.333 126.016 135.88C126.016 135.427 126.088 135.035 126.232 134.704C126.376 134.373 126.581 134.117 126.848 133.936C127.12 133.755 127.44 133.664 127.808 133.664C128.091 133.664 128.349 133.725 128.584 133.848C128.819 133.965 128.995 134.133 129.112 134.352V132.32H129.784V138H129.176L129.152 137.36C129.035 137.589 128.856 137.771 128.616 137.904C128.376 138.032 128.107 138.096 127.808 138.096ZM127.944 137.456C128.195 137.456 128.405 137.392 128.576 137.264C128.752 137.136 128.885 136.955 128.976 136.72C129.067 136.48 129.112 136.2 129.112 135.88C129.112 135.549 129.067 135.267 128.976 135.032C128.885 134.797 128.752 134.619 128.576 134.496C128.405 134.368 128.195 134.304 127.944 134.304C127.571 134.304 127.272 134.445 127.048 134.728C126.829 135.005 126.72 135.389 126.72 135.88C126.72 136.365 126.829 136.749 127.048 137.032C127.272 137.315 127.571 137.456 127.944 137.456ZM134.606 138.096C134.227 138.096 133.905 138.035 133.638 137.912C133.377 137.789 133.171 137.621 133.022 137.408C132.878 137.189 132.795 136.941 132.774 136.664L133.478 136.616C133.521 136.872 133.63 137.077 133.806 137.232C133.982 137.381 134.249 137.456 134.606 137.456C134.894 137.456 135.123 137.411 135.294 137.32C135.47 137.224 135.558 137.072 135.558 136.864C135.558 136.752 135.531 136.659 135.478 136.584C135.425 136.509 135.321 136.445 135.166 136.392C135.011 136.333 134.782 136.277 134.478 136.224C134.073 136.149 133.753 136.059 133.518 135.952C133.289 135.84 133.123 135.704 133.022 135.544C132.926 135.379 132.878 135.184 132.878 134.96C132.878 134.581 133.017 134.272 133.294 134.032C133.571 133.787 133.966 133.664 134.478 133.664C134.825 133.664 135.115 133.728 135.35 133.856C135.59 133.979 135.777 134.144 135.91 134.352C136.049 134.555 136.139 134.779 136.182 135.024L135.478 135.072C135.446 134.923 135.387 134.792 135.302 134.68C135.217 134.563 135.105 134.472 134.966 134.408C134.827 134.339 134.662 134.304 134.47 134.304C134.166 134.304 133.942 134.363 133.798 134.48C133.654 134.597 133.582 134.747 133.582 134.928C133.582 135.067 133.614 135.181 133.678 135.272C133.747 135.357 133.857 135.429 134.006 135.488C134.155 135.541 134.355 135.589 134.606 135.632C135.038 135.707 135.374 135.797 135.614 135.904C135.854 136.011 136.022 136.141 136.118 136.296C136.214 136.451 136.262 136.64 136.262 136.864C136.262 137.125 136.187 137.349 136.038 137.536C135.894 137.717 135.697 137.856 135.446 137.952C135.201 138.048 134.921 138.096 134.606 138.096ZM138.571 138.096C138.15 138.096 137.811 137.955 137.555 137.672C137.304 137.384 137.179 136.989 137.179 136.488V133.76H137.851V136.304C137.851 136.715 137.923 137.019 138.067 137.216C138.216 137.408 138.443 137.504 138.747 137.504C139.083 137.504 139.347 137.397 139.539 137.184C139.731 136.965 139.827 136.667 139.827 136.288V133.76H140.499V138H139.859V136.952L139.963 137.008C139.878 137.355 139.715 137.624 139.475 137.816C139.235 138.003 138.934 138.096 138.571 138.096ZM143.359 138.096C142.964 138.096 142.62 138.005 142.327 137.824C142.039 137.643 141.815 137.387 141.655 137.056C141.495 136.72 141.415 136.328 141.415 135.88C141.415 135.432 141.495 135.043 141.655 134.712C141.815 134.381 142.039 134.125 142.327 133.944C142.62 133.757 142.964 133.664 143.359 133.664C143.684 133.664 143.972 133.723 144.223 133.84C144.479 133.952 144.687 134.117 144.847 134.336C145.007 134.555 145.111 134.821 145.159 135.136L144.455 135.184C144.407 134.901 144.284 134.685 144.087 134.536C143.889 134.381 143.647 134.304 143.359 134.304C142.969 134.304 142.665 134.445 142.447 134.728C142.228 135.005 142.118 135.389 142.118 135.88C142.118 136.371 142.228 136.757 142.447 137.04C142.665 137.317 142.969 137.456 143.359 137.456C143.647 137.456 143.889 137.376 144.087 137.216C144.284 137.056 144.407 136.816 144.455 136.496L145.159 136.544C145.111 136.859 145.007 137.133 144.847 137.368C144.687 137.597 144.479 137.776 144.223 137.904C143.972 138.032 143.684 138.096 143.359 138.096ZM147.648 138.096C147.253 138.096 146.909 138.005 146.616 137.824C146.328 137.643 146.104 137.387 145.944 137.056C145.784 136.72 145.704 136.328 145.704 135.88C145.704 135.432 145.784 135.043 145.944 134.712C146.104 134.381 146.328 134.125 146.616 133.944C146.909 133.757 147.253 133.664 147.648 133.664C147.973 133.664 148.261 133.723 148.512 133.84C148.768 133.952 148.976 134.117 149.136 134.336C149.296 134.555 149.4 134.821 149.448 135.136L148.744 135.184C148.696 134.901 148.573 134.685 148.376 134.536C148.178 134.381 147.936 134.304 147.648 134.304C147.258 134.304 146.954 134.445 146.736 134.728C146.517 135.005 146.408 135.389 146.408 135.88C146.408 136.371 146.517 136.757 146.736 137.04C146.954 137.317 147.258 137.456 147.648 137.456C147.936 137.456 148.178 137.376 148.376 137.216C148.573 137.056 148.696 136.816 148.744 136.496L149.448 136.544C149.4 136.859 149.296 137.133 149.136 137.368C148.976 137.597 148.768 137.776 148.512 137.904C148.261 138.032 147.973 138.096 147.648 138.096ZM151.937 138.096C151.537 138.096 151.19 138.005 150.897 137.824C150.609 137.643 150.385 137.387 150.225 137.056C150.07 136.72 149.993 136.328 149.993 135.88C149.993 135.432 150.07 135.043 150.225 134.712C150.385 134.381 150.606 134.125 150.889 133.944C151.177 133.757 151.515 133.664 151.905 133.664C152.273 133.664 152.598 133.752 152.881 133.928C153.163 134.099 153.382 134.349 153.537 134.68C153.697 135.011 153.777 135.413 153.777 135.888V136.088H150.697C150.723 136.541 150.843 136.883 151.057 137.112C151.275 137.341 151.569 137.456 151.937 137.456C152.214 137.456 152.441 137.392 152.617 137.264C152.798 137.131 152.923 136.957 152.993 136.744L153.713 136.8C153.601 137.179 153.387 137.491 153.073 137.736C152.763 137.976 152.385 138.096 151.937 138.096ZM150.697 135.496H153.041C153.009 135.085 152.889 134.784 152.681 134.592C152.478 134.4 152.219 134.304 151.905 134.304C151.579 134.304 151.31 134.405 151.097 134.608C150.889 134.805 150.755 135.101 150.697 135.496ZM156.231 138.096C155.852 138.096 155.53 138.035 155.263 137.912C155.002 137.789 154.796 137.621 154.647 137.408C154.503 137.189 154.42 136.941 154.399 136.664L155.103 136.616C155.146 136.872 155.255 137.077 155.431 137.232C155.607 137.381 155.874 137.456 156.231 137.456C156.519 137.456 156.748 137.411 156.919 137.32C157.095 137.224 157.183 137.072 157.183 136.864C157.183 136.752 157.156 136.659 157.103 136.584C157.05 136.509 156.946 136.445 156.791 136.392C156.636 136.333 156.407 136.277 156.103 136.224C155.698 136.149 155.378 136.059 155.143 135.952C154.914 135.84 154.748 135.704 154.647 135.544C154.551 135.379 154.503 135.184 154.503 134.96C154.503 134.581 154.642 134.272 154.919 134.032C155.196 133.787 155.591 133.664 156.103 133.664C156.45 133.664 156.74 133.728 156.975 133.856C157.215 133.979 157.402 134.144 157.535 134.352C157.674 134.555 157.764 134.779 157.807 135.024L157.103 135.072C157.071 134.923 157.012 134.792 156.927 134.68C156.842 134.563 156.73 134.472 156.591 134.408C156.452 134.339 156.287 134.304 156.095 134.304C155.791 134.304 155.567 134.363 155.423 134.48C155.279 134.597 155.207 134.747 155.207 134.928C155.207 135.067 155.239 135.181 155.303 135.272C155.372 135.357 155.482 135.429 155.631 135.488C155.78 135.541 155.98 135.589 156.231 135.632C156.663 135.707 156.999 135.797 157.239 135.904C157.479 136.011 157.647 136.141 157.743 136.296C157.839 136.451 157.887 136.64 157.887 136.864C157.887 137.125 157.812 137.349 157.663 137.536C157.519 137.717 157.322 137.856 157.071 137.952C156.826 138.048 156.546 138.096 156.231 138.096ZM160.348 138.096C159.969 138.096 159.647 138.035 159.38 137.912C159.119 137.789 158.913 137.621 158.764 137.408C158.62 137.189 158.537 136.941 158.516 136.664L159.22 136.616C159.263 136.872 159.372 137.077 159.548 137.232C159.724 137.381 159.991 137.456 160.348 137.456C160.636 137.456 160.865 137.411 161.036 137.32C161.212 137.224 161.3 137.072 161.3 136.864C161.3 136.752 161.273 136.659 161.22 136.584C161.167 136.509 161.063 136.445 160.908 136.392C160.753 136.333 160.524 136.277 160.22 136.224C159.815 136.149 159.495 136.059 159.26 135.952C159.031 135.84 158.865 135.704 158.764 135.544C158.668 135.379 158.62 135.184 158.62 134.96C158.62 134.581 158.759 134.272 159.036 134.032C159.313 133.787 159.708 133.664 160.22 133.664C160.567 133.664 160.857 133.728 161.092 133.856C161.332 133.979 161.519 134.144 161.652 134.352C161.791 134.555 161.881 134.779 161.924 135.024L161.22 135.072C161.188 134.923 161.129 134.792 161.044 134.68C160.959 134.563 160.847 134.472 160.708 134.408C160.569 134.339 160.404 134.304 160.212 134.304C159.908 134.304 159.684 134.363 159.54 134.48C159.396 134.597 159.324 134.747 159.324 134.928C159.324 135.067 159.356 135.181 159.42 135.272C159.489 135.357 159.599 135.429 159.748 135.488C159.897 135.541 160.097 135.589 160.348 135.632C160.78 135.707 161.116 135.797 161.356 135.904C161.596 136.011 161.764 136.141 161.86 136.296C161.956 136.451 162.004 136.64 162.004 136.864C162.004 137.125 161.929 137.349 161.78 137.536C161.636 137.717 161.439 137.856 161.188 137.952C160.943 138.048 160.663 138.096 160.348 138.096ZM164.999 138V133.76H165.615L165.639 134.832L165.543 134.8C165.591 134.565 165.674 134.365 165.791 134.2C165.914 134.029 166.063 133.899 166.239 133.808C166.415 133.712 166.61 133.664 166.823 133.664C167.191 133.664 167.49 133.765 167.719 133.968C167.954 134.171 168.101 134.453 168.159 134.816L168.031 134.808C168.074 134.563 168.151 134.357 168.263 134.192C168.381 134.021 168.53 133.891 168.711 133.8C168.893 133.709 169.101 133.664 169.335 133.664C169.639 133.664 169.895 133.728 170.103 133.856C170.311 133.979 170.469 134.16 170.575 134.4C170.682 134.64 170.735 134.931 170.735 135.272V138H170.063V135.416C170.063 135.032 169.989 134.744 169.839 134.552C169.69 134.355 169.469 134.256 169.175 134.256C168.978 134.256 168.805 134.304 168.655 134.4C168.511 134.496 168.399 134.635 168.319 134.816C168.239 134.992 168.199 135.208 168.199 135.464V138H167.527V135.464C167.527 135.085 167.461 134.789 167.327 134.576C167.194 134.363 166.97 134.256 166.655 134.256C166.458 134.256 166.285 134.304 166.135 134.4C165.991 134.496 165.877 134.635 165.791 134.816C165.711 134.997 165.671 135.213 165.671 135.464V138H164.999ZM173.577 138.096C173.177 138.096 172.831 138.005 172.537 137.824C172.249 137.643 172.025 137.387 171.865 137.056C171.711 136.72 171.633 136.328 171.633 135.88C171.633 135.432 171.711 135.043 171.865 134.712C172.025 134.381 172.247 134.125 172.529 133.944C172.817 133.757 173.156 133.664 173.545 133.664C173.913 133.664 174.239 133.752 174.521 133.928C174.804 134.099 175.023 134.349 175.177 134.68C175.337 135.011 175.417 135.413 175.417 135.888V136.088H172.337C172.364 136.541 172.484 136.883 172.697 137.112C172.916 137.341 173.209 137.456 173.577 137.456C173.855 137.456 174.081 137.392 174.257 137.264C174.439 137.131 174.564 136.957 174.633 136.744L175.353 136.8C175.241 137.179 175.028 137.491 174.713 137.736C174.404 137.976 174.025 138.096 173.577 138.096ZM172.337 135.496H174.681C174.649 135.085 174.529 134.784 174.321 134.592C174.119 134.4 173.86 134.304 173.545 134.304C173.22 134.304 172.951 134.405 172.737 134.608C172.529 134.805 172.396 135.101 172.337 135.496ZM177.581 138.096C177.144 138.096 176.794 137.995 176.533 137.792C176.277 137.589 176.149 137.307 176.149 136.944C176.149 136.581 176.256 136.296 176.469 136.088C176.682 135.88 177.021 135.733 177.485 135.648L178.989 135.368C178.989 135.011 178.904 134.744 178.733 134.568C178.568 134.392 178.317 134.304 177.981 134.304C177.688 134.304 177.456 134.371 177.285 134.504C177.114 134.632 176.997 134.819 176.933 135.064L176.221 135.008C176.301 134.608 176.493 134.285 176.797 134.04C177.106 133.789 177.501 133.664 177.981 133.664C178.525 133.664 178.941 133.819 179.229 134.128C179.517 134.432 179.661 134.853 179.661 135.392V137.144C179.661 137.24 179.677 137.309 179.709 137.352C179.746 137.389 179.805 137.408 179.885 137.408H180.053V138C180.032 138.005 179.997 138.008 179.949 138.008C179.901 138.013 179.85 138.016 179.797 138.016C179.605 138.016 179.448 137.987 179.325 137.928C179.208 137.864 179.122 137.768 179.069 137.64C179.016 137.507 178.989 137.333 178.989 137.12L179.069 137.136C179.032 137.317 178.941 137.483 178.797 137.632C178.653 137.776 178.474 137.891 178.261 137.976C178.048 138.056 177.821 138.096 177.581 138.096ZM177.645 137.504C177.928 137.504 178.168 137.451 178.365 137.344C178.568 137.232 178.722 137.083 178.829 136.896C178.936 136.704 178.989 136.491 178.989 136.256V135.952L177.613 136.208C177.325 136.261 177.125 136.344 177.013 136.456C176.906 136.563 176.853 136.704 176.853 136.88C176.853 137.077 176.922 137.232 177.061 137.344C177.205 137.451 177.4 137.504 177.645 137.504ZM182.34 138.096C181.962 138.096 181.639 138.035 181.372 137.912C181.111 137.789 180.906 137.621 180.756 137.408C180.612 137.189 180.53 136.941 180.508 136.664L181.212 136.616C181.255 136.872 181.364 137.077 181.54 137.232C181.716 137.381 181.983 137.456 182.34 137.456C182.628 137.456 182.858 137.411 183.028 137.32C183.204 137.224 183.292 137.072 183.292 136.864C183.292 136.752 183.266 136.659 183.212 136.584C183.159 136.509 183.055 136.445 182.9 136.392C182.746 136.333 182.516 136.277 182.212 136.224C181.807 136.149 181.487 136.059 181.252 135.952C181.023 135.84 180.858 135.704 180.756 135.544C180.66 135.379 180.612 135.184 180.612 134.96C180.612 134.581 180.751 134.272 181.028 134.032C181.306 133.787 181.7 133.664 182.212 133.664C182.559 133.664 182.85 133.728 183.084 133.856C183.324 133.979 183.511 134.144 183.644 134.352C183.783 134.555 183.874 134.779 183.916 135.024L183.212 135.072C183.18 134.923 183.122 134.792 183.036 134.68C182.951 134.563 182.839 134.472 182.7 134.408C182.562 134.339 182.396 134.304 182.204 134.304C181.9 134.304 181.676 134.363 181.532 134.48C181.388 134.597 181.316 134.747 181.316 134.928C181.316 135.067 181.348 135.181 181.412 135.272C181.482 135.357 181.591 135.429 181.74 135.488C181.89 135.541 182.09 135.589 182.34 135.632C182.772 135.707 183.108 135.797 183.348 135.904C183.588 136.011 183.756 136.141 183.852 136.296C183.948 136.451 183.996 136.64 183.996 136.864C183.996 137.125 183.922 137.349 183.772 137.536C183.628 137.717 183.431 137.856 183.18 137.952C182.935 138.048 182.655 138.096 182.34 138.096ZM186.305 138.096C185.884 138.096 185.545 137.955 185.289 137.672C185.039 137.384 184.913 136.989 184.913 136.488V133.76H185.585V136.304C185.585 136.715 185.657 137.019 185.801 137.216C185.951 137.408 186.177 137.504 186.481 137.504C186.817 137.504 187.081 137.397 187.273 137.184C187.465 136.965 187.561 136.667 187.561 136.288V133.76H188.233V138H187.593V136.952L187.697 137.008C187.612 137.355 187.449 137.624 187.209 137.816C186.969 138.003 186.668 138.096 186.305 138.096ZM189.515 138V133.76H190.107L190.139 134.832L190.075 134.808C190.128 134.445 190.243 134.181 190.419 134.016C190.6 133.845 190.84 133.76 191.139 133.76H191.555V134.4H191.147C190.934 134.4 190.755 134.44 190.611 134.52C190.472 134.595 190.366 134.709 190.291 134.864C190.222 135.013 190.187 135.205 190.187 135.44V138H189.515ZM193.882 138.096C193.482 138.096 193.135 138.005 192.842 137.824C192.554 137.643 192.33 137.387 192.17 137.056C192.015 136.72 191.938 136.328 191.938 135.88C191.938 135.432 192.015 135.043 192.17 134.712C192.33 134.381 192.551 134.125 192.834 133.944C193.122 133.757 193.461 133.664 193.85 133.664C194.218 133.664 194.543 133.752 194.826 133.928C195.109 134.099 195.327 134.349 195.482 134.68C195.642 135.011 195.722 135.413 195.722 135.888V136.088H192.642C192.669 136.541 192.789 136.883 193.002 137.112C193.221 137.341 193.514 137.456 193.882 137.456C194.159 137.456 194.386 137.392 194.562 137.264C194.743 137.131 194.869 136.957 194.938 136.744L195.658 136.8C195.546 137.179 195.333 137.491 195.018 137.736C194.709 137.976 194.33 138.096 193.882 138.096ZM192.642 135.496H194.986C194.954 135.085 194.834 134.784 194.626 134.592C194.423 134.4 194.165 134.304 193.85 134.304C193.525 134.304 193.255 134.405 193.042 134.608C192.834 134.805 192.701 135.101 192.642 135.496ZM196.632 138V133.76H197.248L197.272 134.832L197.176 134.8C197.224 134.565 197.307 134.365 197.424 134.2C197.547 134.029 197.696 133.899 197.872 133.808C198.048 133.712 198.243 133.664 198.456 133.664C198.824 133.664 199.123 133.765 199.352 133.968C199.587 134.171 199.734 134.453 199.792 134.816L199.664 134.808C199.707 134.563 199.784 134.357 199.896 134.192C200.014 134.021 200.163 133.891 200.344 133.8C200.526 133.709 200.734 133.664 200.968 133.664C201.272 133.664 201.528 133.728 201.736 133.856C201.944 133.979 202.102 134.16 202.208 134.4C202.315 134.64 202.368 134.931 202.368 135.272V138H201.696V135.416C201.696 135.032 201.622 134.744 201.472 134.552C201.323 134.355 201.102 134.256 200.808 134.256C200.611 134.256 200.438 134.304 200.288 134.4C200.144 134.496 200.032 134.635 199.952 134.816C199.872 134.992 199.832 135.208 199.832 135.464V138H199.16V135.464C199.16 135.085 199.094 134.789 198.96 134.576C198.827 134.363 198.603 134.256 198.288 134.256C198.091 134.256 197.918 134.304 197.768 134.4C197.624 134.496 197.51 134.635 197.424 134.816C197.344 134.997 197.304 135.213 197.304 135.464V138H196.632ZM205.21 138.096C204.81 138.096 204.463 138.005 204.17 137.824C203.882 137.643 203.658 137.387 203.498 137.056C203.343 136.72 203.266 136.328 203.266 135.88C203.266 135.432 203.343 135.043 203.498 134.712C203.658 134.381 203.879 134.125 204.162 133.944C204.45 133.757 204.789 133.664 205.178 133.664C205.546 133.664 205.871 133.752 206.154 133.928C206.437 134.099 206.655 134.349 206.81 134.68C206.97 135.011 207.05 135.413 207.05 135.888V136.088H203.97C203.997 136.541 204.117 136.883 204.33 137.112C204.549 137.341 204.842 137.456 205.21 137.456C205.487 137.456 205.714 137.392 205.89 137.264C206.071 137.131 206.197 136.957 206.266 136.744L206.986 136.8C206.874 137.179 206.661 137.491 206.346 137.736C206.037 137.976 205.658 138.096 205.21 138.096ZM203.97 135.496H206.314C206.282 135.085 206.162 134.784 205.954 134.592C205.751 134.4 205.493 134.304 205.178 134.304C204.853 134.304 204.583 134.405 204.37 134.608C204.162 134.805 204.029 135.101 203.97 135.496ZM207.96 138V133.76H208.576L208.6 134.84L208.52 134.768C208.574 134.517 208.667 134.312 208.8 134.152C208.934 133.987 209.094 133.864 209.28 133.784C209.472 133.704 209.678 133.664 209.896 133.664C210.222 133.664 210.488 133.736 210.696 133.88C210.91 134.024 211.067 134.219 211.168 134.464C211.275 134.704 211.328 134.973 211.328 135.272V138H210.656V135.464C210.656 135.203 210.624 134.984 210.56 134.808C210.502 134.627 210.406 134.491 210.272 134.4C210.139 134.304 209.966 134.256 209.752 134.256C209.427 134.256 209.158 134.36 208.944 134.568C208.736 134.771 208.632 135.069 208.632 135.464V138H207.96ZM213.84 138C213.456 138 213.171 137.912 212.984 137.736C212.803 137.56 212.712 137.285 212.712 136.912V132.768H213.384V136.896C213.384 137.088 213.427 137.221 213.512 137.296C213.598 137.371 213.728 137.408 213.904 137.408H214.512V138H213.84ZM212.088 134.352V133.76H214.512V134.352H212.088ZM216.84 138.096C216.462 138.096 216.139 138.035 215.872 137.912C215.611 137.789 215.406 137.621 215.256 137.408C215.112 137.189 215.03 136.941 215.008 136.664L215.712 136.616C215.755 136.872 215.864 137.077 216.04 137.232C216.216 137.381 216.483 137.456 216.84 137.456C217.128 137.456 217.358 137.411 217.528 137.32C217.704 137.224 217.792 137.072 217.792 136.864C217.792 136.752 217.766 136.659 217.712 136.584C217.659 136.509 217.555 136.445 217.4 136.392C217.246 136.333 217.016 136.277 216.712 136.224C216.307 136.149 215.987 136.059 215.752 135.952C215.523 135.84 215.358 135.704 215.256 135.544C215.16 135.379 215.112 135.184 215.112 134.96C215.112 134.581 215.251 134.272 215.528 134.032C215.806 133.787 216.2 133.664 216.712 133.664C217.059 133.664 217.35 133.728 217.584 133.856C217.824 133.979 218.011 134.144 218.144 134.352C218.283 134.555 218.374 134.779 218.416 135.024L217.712 135.072C217.68 134.923 217.622 134.792 217.536 134.68C217.451 134.563 217.339 134.472 217.2 134.408C217.062 134.339 216.896 134.304 216.704 134.304C216.4 134.304 216.176 134.363 216.032 134.48C215.888 134.597 215.816 134.747 215.816 134.928C215.816 135.067 215.848 135.181 215.912 135.272C215.982 135.357 216.091 135.429 216.24 135.488C216.39 135.541 216.59 135.589 216.84 135.632C217.272 135.707 217.608 135.797 217.848 135.904C218.088 136.011 218.256 136.141 218.352 136.296C218.448 136.451 218.496 136.64 218.496 136.864C218.496 137.125 218.422 137.349 218.272 137.536C218.128 137.717 217.931 137.856 217.68 137.952C217.435 138.048 217.155 138.096 216.84 138.096ZM221.908 138V133.376C221.908 133.061 221.998 132.808 222.18 132.616C222.361 132.419 222.644 132.32 223.028 132.32H223.7V132.912H223.076C222.91 132.912 222.785 132.957 222.7 133.048C222.62 133.139 222.58 133.264 222.58 133.424V138H221.908ZM221.332 134.352V133.76H223.644V134.352H221.332ZM224.406 138V133.76H224.998L225.03 134.832L224.966 134.808C225.019 134.445 225.134 134.181 225.31 134.016C225.491 133.845 225.731 133.76 226.03 133.76H226.446V134.4H226.038C225.824 134.4 225.646 134.44 225.502 134.52C225.363 134.595 225.256 134.709 225.182 134.864C225.112 135.013 225.078 135.205 225.078 135.44V138H224.406ZM228.261 138.096C227.823 138.096 227.474 137.995 227.213 137.792C226.957 137.589 226.829 137.307 226.829 136.944C226.829 136.581 226.935 136.296 227.149 136.088C227.362 135.88 227.701 135.733 228.165 135.648L229.669 135.368C229.669 135.011 229.583 134.744 229.413 134.568C229.247 134.392 228.997 134.304 228.661 134.304C228.367 134.304 228.135 134.371 227.965 134.504C227.794 134.632 227.677 134.819 227.613 135.064L226.901 135.008C226.981 134.608 227.173 134.285 227.477 134.04C227.786 133.789 228.181 133.664 228.661 133.664C229.205 133.664 229.621 133.819 229.909 134.128C230.197 134.432 230.341 134.853 230.341 135.392V137.144C230.341 137.24 230.357 137.309 230.389 137.352C230.426 137.389 230.485 137.408 230.565 137.408H230.733V138C230.711 138.005 230.677 138.008 230.629 138.008C230.581 138.013 230.53 138.016 230.477 138.016C230.285 138.016 230.127 137.987 230.005 137.928C229.887 137.864 229.802 137.768 229.749 137.64C229.695 137.507 229.669 137.333 229.669 137.12L229.749 137.136C229.711 137.317 229.621 137.483 229.477 137.632C229.333 137.776 229.154 137.891 228.941 137.976C228.727 138.056 228.501 138.096 228.261 138.096ZM228.325 137.504C228.607 137.504 228.847 137.451 229.045 137.344C229.247 137.232 229.402 137.083 229.509 136.896C229.615 136.704 229.669 136.491 229.669 136.256V135.952L228.293 136.208C228.005 136.261 227.805 136.344 227.693 136.456C227.586 136.563 227.533 136.704 227.533 136.88C227.533 137.077 227.602 137.232 227.741 137.344C227.885 137.451 228.079 137.504 228.325 137.504ZM231.492 138V133.76H232.108L232.132 134.832L232.036 134.8C232.084 134.565 232.166 134.365 232.284 134.2C232.406 134.029 232.556 133.899 232.732 133.808C232.908 133.712 233.102 133.664 233.316 133.664C233.684 133.664 233.982 133.765 234.212 133.968C234.446 134.171 234.593 134.453 234.652 134.816L234.524 134.808C234.566 134.563 234.644 134.357 234.756 134.192C234.873 134.021 235.022 133.891 235.204 133.8C235.385 133.709 235.593 133.664 235.828 133.664C236.132 133.664 236.388 133.728 236.596 133.856C236.804 133.979 236.961 134.16 237.068 134.4C237.174 134.64 237.228 134.931 237.228 135.272V138H236.556V135.416C236.556 135.032 236.481 134.744 236.332 134.552C236.182 134.355 235.961 134.256 235.668 134.256C235.47 134.256 235.297 134.304 235.148 134.4C235.004 134.496 234.892 134.635 234.812 134.816C234.732 134.992 234.692 135.208 234.692 135.464V138H234.02V135.464C234.02 135.085 233.953 134.789 233.82 134.576C233.686 134.363 233.462 134.256 233.148 134.256C232.95 134.256 232.777 134.304 232.628 134.4C232.484 134.496 232.369 134.635 232.284 134.816C232.204 134.997 232.164 135.213 232.164 135.464V138H231.492ZM240.069 138.096C239.669 138.096 239.323 138.005 239.029 137.824C238.741 137.643 238.517 137.387 238.357 137.056C238.203 136.72 238.125 136.328 238.125 135.88C238.125 135.432 238.203 135.043 238.357 134.712C238.517 134.381 238.739 134.125 239.021 133.944C239.309 133.757 239.648 133.664 240.037 133.664C240.405 133.664 240.731 133.752 241.013 133.928C241.296 134.099 241.515 134.349 241.669 134.68C241.829 135.011 241.909 135.413 241.909 135.888V136.088H238.829C238.856 136.541 238.976 136.883 239.189 137.112C239.408 137.341 239.701 137.456 240.069 137.456C240.347 137.456 240.573 137.392 240.749 137.264C240.931 137.131 241.056 136.957 241.125 136.744L241.845 136.8C241.733 137.179 241.52 137.491 241.205 137.736C240.896 137.976 240.517 138.096 240.069 138.096ZM238.829 135.496H241.173C241.141 135.085 241.021 134.784 240.813 134.592C240.611 134.4 240.352 134.304 240.037 134.304C239.712 134.304 239.443 134.405 239.229 134.608C239.021 134.805 238.888 135.101 238.829 135.496ZM243.543 138L242.231 133.76H242.967L243.959 137.296L244.967 133.76H245.687L246.695 137.296L247.695 133.76H248.431L247.119 138H246.271L245.327 134.776L244.383 138H243.543ZM250.694 138.096C250.305 138.096 249.964 138.005 249.67 137.824C249.377 137.643 249.15 137.387 248.99 137.056C248.83 136.72 248.75 136.328 248.75 135.88C248.75 135.427 248.83 135.035 248.99 134.704C249.15 134.373 249.377 134.117 249.67 133.936C249.964 133.755 250.305 133.664 250.694 133.664C251.084 133.664 251.422 133.755 251.71 133.936C252.004 134.117 252.23 134.373 252.39 134.704C252.55 135.035 252.63 135.427 252.63 135.88C252.63 136.328 252.55 136.72 252.39 137.056C252.23 137.387 252.004 137.643 251.71 137.824C251.422 138.005 251.084 138.096 250.694 138.096ZM250.694 137.456C251.084 137.456 251.385 137.317 251.598 137.04C251.817 136.757 251.926 136.371 251.926 135.88C251.926 135.389 251.817 135.005 251.598 134.728C251.385 134.445 251.084 134.304 250.694 134.304C250.305 134.304 250.001 134.445 249.782 134.728C249.564 135.005 249.454 135.389 249.454 135.88C249.454 136.371 249.564 136.757 249.782 137.04C250.001 137.317 250.305 137.456 250.694 137.456ZM253.546 138V133.76H254.138L254.17 134.832L254.106 134.808C254.16 134.445 254.274 134.181 254.45 134.016C254.632 133.845 254.872 133.76 255.17 133.76H255.586V134.4H255.178C254.965 134.4 254.786 134.44 254.642 134.52C254.504 134.595 254.397 134.709 254.322 134.864C254.253 135.013 254.218 135.205 254.218 135.44V138H253.546ZM256.335 138V132.32H257.007V136.04L259.071 133.76H259.967L258.295 135.56L260.039 138H259.223L257.839 136.016L257.007 136.896V138H256.335ZM262.2 138.096C261.821 138.096 261.498 138.035 261.232 137.912C260.97 137.789 260.765 137.621 260.616 137.408C260.472 137.189 260.389 136.941 260.368 136.664L261.072 136.616C261.114 136.872 261.224 137.077 261.4 137.232C261.576 137.381 261.842 137.456 262.2 137.456C262.488 137.456 262.717 137.411 262.888 137.32C263.064 137.224 263.152 137.072 263.152 136.864C263.152 136.752 263.125 136.659 263.072 136.584C263.018 136.509 262.914 136.445 262.76 136.392C262.605 136.333 262.376 136.277 262.072 136.224C261.666 136.149 261.346 136.059 261.112 135.952C260.882 135.84 260.717 135.704 260.616 135.544C260.52 135.379 260.472 135.184 260.472 134.96C260.472 134.581 260.61 134.272 260.888 134.032C261.165 133.787 261.56 133.664 262.072 133.664C262.418 133.664 262.709 133.728 262.944 133.856C263.184 133.979 263.37 134.144 263.504 134.352C263.642 134.555 263.733 134.779 263.776 135.024L263.072 135.072C263.04 134.923 262.981 134.792 262.896 134.68C262.81 134.563 262.698 134.472 262.56 134.408C262.421 134.339 262.256 134.304 262.064 134.304C261.76 134.304 261.536 134.363 261.392 134.48C261.248 134.597 261.176 134.747 261.176 134.928C261.176 135.067 261.208 135.181 261.272 135.272C261.341 135.357 261.45 135.429 261.6 135.488C261.749 135.541 261.949 135.589 262.2 135.632C262.632 135.707 262.968 135.797 263.208 135.904C263.448 136.011 263.616 136.141 263.712 136.296C263.808 136.451 263.856 136.64 263.856 136.864C263.856 137.125 263.781 137.349 263.632 137.536C263.488 137.717 263.29 137.856 263.04 137.952C262.794 138.048 262.514 138.096 262.2 138.096Z" fill="#0F172A"/>
</g>
<defs>
<clipPath id="clip0_2436_32696">
<rect width="277" height="190" rx="16" fill="white"/>
</clipPath>
</defs>
</svg>
