<svg width="80" height="80" viewBox="0 0 80 80" fill="none" xmlns="http://www.w3.org/2000/svg">
<g clip-path="url(#clip0_2436_32441)">
<path fill-rule="evenodd" clip-rule="evenodd" d="M3.00805 61.4527C1.55472 60.3194 0.534721 58.7194 0.121384 56.9194C0.104034 56.4626 0.26638 56.0173 0.573601 55.6789C0.880829 55.3405 1.30846 55.1361 1.76472 55.1094H2.94138C6.44205 55.1882 9.94357 54.9965 13.4147 54.536L14.4547 52.626C15.258 50.9794 16.0314 49.2694 16.8714 47.7927C17.708 46.316 18.078 45.6427 18.7847 44.436C18.9631 44.1999 19.1938 44.0084 19.4587 43.8765C19.7236 43.7446 20.0155 43.676 20.3114 43.676C20.6073 43.676 20.8992 43.7446 21.1641 43.8765C21.429 44.0084 21.6597 44.1999 21.838 44.436C22.538 45.5182 23.1758 46.6371 23.7514 47.7927C24.6247 49.336 25.3947 50.9794 26.2014 52.5927L27.2414 54.5027C30.6987 54.9924 34.1906 55.1953 37.6814 55.1094H38.8881C39.3481 55.1427 39.7772 55.3537 40.0845 55.6977C40.3918 56.0418 40.5532 56.4918 40.5347 56.9527C40.1181 58.7594 39.0847 60.3627 37.6147 61.486C35.1647 63.4427 32.5714 65.2194 29.8581 66.786L30.1947 67.526C30.6981 68.836 32.8481 72.966 33.5514 75.616C33.8247 76.3227 33.9514 77.076 33.918 77.8327C33.8994 78.0697 33.8303 78.3001 33.7153 78.5082C33.6003 78.7163 33.4422 78.8974 33.2514 79.0394C32.5169 79.5397 31.6726 79.8557 30.7901 79.9608C29.9076 80.0658 29.0128 79.9567 28.1814 79.6427C25.2318 78.4563 22.5248 76.739 20.1947 74.576C17.7103 76.677 14.8972 78.355 11.868 79.5427C11.0283 79.8843 10.1197 80.0231 9.21623 79.9478C8.31274 79.8725 7.43972 79.5853 6.66805 79.1094C6.46114 78.9641 6.29 78.7737 6.16757 78.5525C6.04514 78.3313 5.97463 78.0852 5.96138 77.8327C5.92001 77.065 6.04509 76.2975 6.32805 75.5827C7.13805 72.966 9.35139 68.8694 9.85472 67.4927C9.85472 67.4927 9.85471 67.026 10.0214 66.7227L9.42138 66.3527C7.17303 64.8694 5.03014 63.2321 3.00805 61.4527ZM12.708 68.466C11.1836 71.2794 9.87472 74.1883 8.78138 77.1927C10.0637 77.5761 11.4438 77.4569 12.6414 76.8594C15.1402 75.718 17.4762 74.2496 19.5881 72.4927C19.7864 72.3587 20.0203 72.2871 20.2597 72.2871C20.4991 72.2871 20.733 72.3587 20.9314 72.4927C22.9881 74.276 25.238 75.8194 27.6447 77.0927C28.2497 77.4283 28.9213 77.6262 29.6116 77.6723C30.3019 77.7184 30.9938 77.6116 31.6381 77.3594C30.5279 74.3662 29.1929 71.4612 27.6447 68.6694C27.3203 68.0538 27.0514 67.416 26.8381 66.756C26.7634 66.4471 26.7634 66.1249 26.8381 65.816C27.12 65.3184 27.5252 64.9017 28.0147 64.606C29.2214 63.7694 31.9414 62.0227 34.1547 60.176C34.756 59.6842 35.328 59.1577 35.868 58.5994C32.5729 58.703 29.2745 58.557 26.0014 58.1627C25.3114 57.976 24.6847 57.6027 24.188 57.0894C23.5503 56.236 23.0236 55.3182 22.6081 54.336C21.8381 52.726 21.0647 51.216 20.2614 49.6694L19.9947 49.2694L19.7914 49.6694C18.918 51.1827 18.178 52.726 17.408 54.336C17.0047 55.316 16.4614 56.2327 15.7947 57.056C15.3114 57.5694 14.6947 57.9394 14.018 58.1294C10.7347 58.5394 7.42471 58.696 4.11805 58.596C4.67361 59.1671 5.26582 59.6938 5.89471 60.176C7.8636 61.7494 9.91138 63.216 12.038 64.576C12.5213 64.8913 12.9233 65.3161 13.2114 65.816C13.3025 66.1341 13.3025 66.4713 13.2114 66.7894C13.0958 67.3627 12.928 67.9216 12.708 68.466ZM64.0647 4.39269C64.3961 4.32921 64.7366 4.32921 65.068 4.39269C65.7478 4.25195 66.4516 4.27919 67.1185 4.47204C67.7853 4.66488 68.395 5.01752 68.8947 5.49936C70.138 7.68269 70.3714 9.12603 72.5547 23.826C73.2247 28.3594 74.398 32.5194 75.2047 36.5127C76.0114 40.506 76.848 45.206 77.7547 49.166C78.5994 52.0944 79.2947 55.0638 79.838 58.0627C79.9183 58.5508 79.8708 59.0514 79.7002 59.5158C79.5296 59.9802 79.2418 60.3925 78.8647 60.7127C75.7936 61.9247 72.612 62.8357 69.3647 63.4327C60.9747 65.2794 49.7647 67.226 47.8514 67.5594C47.5901 67.6044 47.3214 67.5504 47.0977 67.4081C46.8739 67.2657 46.7113 67.0451 46.6414 66.7894C46.611 66.6523 46.6088 66.5104 46.635 66.3725C46.6613 66.2345 46.7153 66.1034 46.7939 65.987C46.8725 65.8706 46.974 65.7715 47.0922 65.6957C47.2104 65.6199 47.3428 65.569 47.4814 65.546C49.3947 65.1127 60.4714 62.6927 68.728 60.5127C71.2969 59.906 73.8247 59.156 76.3114 58.2627C75.9447 55.7794 74.3314 50.476 74.2647 50.106C73.6614 47.3894 73.058 44.5694 72.5547 41.5827C70.808 31.716 69.8347 22.8194 67.1847 9.72936C67.1847 9.72936 66.9147 8.04936 66.8814 8.01603C66.5093 7.75841 66.1017 7.5563 65.6714 7.41603C64.9014 7.41603 64.298 7.41603 64.028 7.21269C63.2214 6.37269 63.1914 4.59269 64.0647 4.39269ZM19.7914 30.406C19.5247 29.2627 19.3214 28.156 19.1514 27.0494C18.9847 25.9394 18.8181 24.7994 18.6847 23.6927C18.4147 21.276 18.2814 18.7594 18.0114 15.7027C17.9619 15.517 17.9619 15.3217 18.0114 15.136C18.0114 15.136 17.7447 14.8994 17.7114 14.696C17.6489 14.4114 17.7018 14.1136 17.8587 13.8679C18.0156 13.6223 18.2635 13.449 18.548 13.386C19.4796 12.8632 20.5065 12.5322 21.5681 12.4127C22.5414 12.4127 23.6847 14.0927 22.9447 14.8994C22.6383 15.2859 22.1937 15.5381 21.7047 15.6027H20.0914C20.7647 18.456 21.4014 20.8694 21.938 23.156C22.1714 24.296 22.4081 25.4027 22.6081 26.5127C22.8081 27.6227 22.978 28.726 23.1147 29.8694C23.348 32.2494 24.3881 38.2927 24.6247 41.346C24.6689 41.5953 24.6123 41.852 24.4672 42.0595C24.3222 42.2671 24.1007 42.4085 23.8514 42.4527C23.6021 42.4969 23.3454 42.4403 23.1379 42.2952C22.9303 42.1502 22.7889 41.9287 22.7447 41.6794C22.778 40.8127 20.1914 31.4794 19.7914 30.406Z" fill="#035A69"/>
<path fill-rule="evenodd" clip-rule="evenodd" d="M10.628 12.4494C10.9152 11.2271 11.4646 10.0818 12.238 9.09272C13.0583 7.96259 14.1779 7.08392 15.4705 6.55566C16.7632 6.0274 18.1777 5.87053 19.5547 6.10272L20.798 5.86938C24.5914 5.09605 27.3414 4.22605 31.1014 3.38605C32.4447 3.08605 33.9214 2.84938 35.6347 2.54605C37.6376 2.18674 39.6521 1.89546 41.6747 1.67272C56.008 0.132718 56.508 -1.31395 60.0647 2.04272C60.5158 2.42938 60.8958 2.87716 61.2047 3.38605C63.8647 7.37938 64.3647 14.2927 69.298 40.4727C69.698 42.4894 70.9414 45.676 71.3447 48.496C71.652 49.8781 71.652 51.3107 71.3447 52.6927C71.0692 53.2706 70.6611 53.7753 70.1537 54.1657C69.6463 54.5561 69.0539 54.8212 68.4247 54.9394C64.6314 56.0127 55.8047 56.3827 48.7914 57.7594C48.5817 57.8147 48.3603 57.8052 48.1561 57.7322C47.952 57.6592 47.7747 57.526 47.6477 57.3503C47.5207 57.1746 47.4499 56.9645 47.4446 56.7478C47.4393 56.531 47.4998 56.3178 47.618 56.136C47.768 55.8922 48.0072 55.7164 48.2847 55.646C53.218 54.4027 59.0947 53.5994 63.3914 52.7594C65.7414 52.3227 68.8614 52.086 68.2914 51.3827C68.2914 51.216 68.0914 51.616 68.058 51.7494C68.2559 50.493 68.1635 49.2079 67.788 47.9927C67.2514 45.576 66.3447 42.9927 65.9414 41.2794C65.3047 38.426 64.5314 35.5727 64.0947 32.686C60.738 10.0327 62.2814 12.5494 59.428 6.90938C58.9836 6.03383 58.4469 5.21716 57.818 4.45938C56.9646 3.36839 55.7925 2.57032 54.4647 2.17605C51.5447 3.01605 48.658 3.72272 45.7047 4.32605C42.7514 4.92938 39.5947 5.39938 36.3714 6.03605C31.6414 6.64272 28.588 7.27939 25.1647 7.78272L23.7547 7.98272C27.848 11.3394 27.748 13.1861 30.938 24.7661C31.2047 25.8061 31.438 26.8127 31.6414 27.8527C31.8414 28.896 31.9747 29.9027 32.1114 30.9427C32.4447 33.3927 33.858 43.966 34.058 46.416C34.0943 46.6908 34.0229 46.9689 33.8588 47.1923C33.6946 47.4156 33.4505 47.5667 33.1774 47.6141C32.9044 47.6615 32.6236 47.6014 32.3938 47.4464C32.164 47.2915 32.0031 47.0536 31.9447 46.7827C31.3047 44.4027 29.358 33.9627 28.588 31.616C28.3214 30.606 28.0847 29.566 27.8814 28.5594C27.6814 27.5527 27.448 26.5127 27.348 25.4694C26.438 17.0794 23.788 11.5427 21.9414 10.1661C21.4468 9.72455 20.8613 9.39692 20.2263 9.20625C19.5914 9.01557 18.9223 8.9665 18.2663 9.06249C17.6102 9.15847 16.9833 9.39718 16.4295 9.76179C15.8758 10.1264 15.4088 10.608 15.0614 11.1727C14.5047 11.9394 14.168 12.8461 14.088 13.7894C13.9747 14.9094 13.9747 16.0283 14.088 17.1461C14.088 19.1594 14.388 21.2427 14.658 23.3227C14.9092 25.3894 15.2669 27.4372 15.7314 29.466L16.738 33.5927C16.8417 33.8534 16.9199 34.1236 16.9714 34.3994H17.8114C18.2723 34.3716 18.7258 34.2703 19.1547 34.0994C20.1614 34.0994 20.9014 35.606 19.1547 36.3127C18.6314 36.6161 18.048 36.7994 17.4447 36.8494C16.6694 36.9094 15.8922 36.7598 15.1947 36.416C14.8833 36.2647 14.6431 35.9981 14.5247 35.6727C14.3674 35.2134 14.2437 34.7433 14.1547 34.266L12.8447 30.236C12.198 28.1405 11.6725 26.0149 11.268 23.8594C10.868 21.6794 10.6314 19.4961 10.428 17.3827C10.272 15.7368 10.3392 14.0773 10.628 12.4494Z" fill="#035A69"/>
<path fill-rule="evenodd" clip-rule="evenodd" d="M30.6983 17.1127C30.6562 16.9759 30.642 16.8321 30.6566 16.6897C30.6712 16.5474 30.7144 16.4094 30.7834 16.2841C30.8525 16.1588 30.946 16.0486 31.0585 15.9602C31.171 15.8717 31.3002 15.8068 31.4383 15.7694C34.4916 14.7294 37.5783 13.7227 40.7349 12.9527C43.4385 12.2925 46.1871 11.8324 48.9583 11.576C52.1881 11.3619 55.4285 11.3619 58.6583 11.576C58.9116 11.5556 59.1628 11.6358 59.3575 11.7993C59.5521 11.9628 59.6745 12.1963 59.6983 12.4494C59.7083 12.5757 59.6924 12.7028 59.6517 12.8229C59.611 12.9429 59.5462 13.0534 59.4614 13.1476C59.3765 13.2418 59.2734 13.3177 59.1582 13.3708C59.0431 13.4238 58.9183 13.4528 58.7916 13.456C55.2016 13.9894 51.6783 14.7627 48.0849 15.4027C45.9383 15.8027 43.7883 16.0727 41.6749 16.4094C38.3183 16.9094 35.1983 17.3494 32.0083 18.0194C31.862 18.0548 31.71 18.0589 31.562 18.0314C31.4141 18.0039 31.2737 17.9454 31.1499 17.8598C31.0262 17.7742 30.922 17.6633 30.8442 17.5346C30.7663 17.4058 30.7166 17.262 30.6983 17.1127ZM37.2116 27.9894C37.1483 27.8576 37.1118 27.7146 37.1044 27.5686C37.097 27.4226 37.1188 27.2766 37.1684 27.1391C37.2181 27.0016 37.2946 26.8754 37.3936 26.7679C37.4926 26.6603 37.612 26.5736 37.7449 26.5127C38.4411 26.1393 39.1724 25.8356 39.9283 25.606C41.0383 25.2727 42.2116 25.036 43.2849 24.766C44.137 24.5497 45.0006 24.3816 45.8716 24.2627C47.2399 24.0894 48.6196 24.0225 49.9983 24.0627C52.2166 24.1935 54.4129 24.5759 56.5449 25.2027C56.671 25.2173 56.7929 25.257 56.9034 25.3195C57.0139 25.382 57.1107 25.466 57.1882 25.5666C57.2657 25.6672 57.3222 25.7822 57.3545 25.905C57.3867 26.0278 57.394 26.1558 57.376 26.2814C57.358 26.4071 57.3149 26.5278 57.2494 26.6366C57.1839 26.7453 57.0973 26.8398 56.9946 26.9145C56.892 26.9892 56.7754 27.0426 56.6518 27.0715C56.5282 27.1003 56.4 27.1042 56.2749 27.0827H53.7916C52.1116 27.0827 50.4349 27.4827 48.8916 27.6527C47.3483 27.8194 45.5349 27.6527 43.9583 27.986H40.6016C39.9483 28.0394 39.3105 28.1627 38.6883 28.356C38.4423 28.497 38.1514 28.5375 37.8763 28.4692C37.6012 28.4009 37.3631 28.229 37.2116 27.9894ZM46.0383 36.3127C46.9399 36.0358 47.86 35.8231 48.7916 35.676C49.7213 35.4973 50.6626 35.3848 51.6083 35.3394C53.8513 35.2765 56.0958 35.3879 58.3216 35.6727C58.5467 35.7127 58.7505 35.8306 58.8974 36.0058C59.0442 36.1811 59.1247 36.4024 59.1247 36.631C59.1247 36.8596 59.0442 37.081 58.8974 37.2562C58.7505 37.4314 58.5467 37.5494 58.3216 37.5894C55.8716 37.9227 53.5883 38.526 51.2416 38.9627C49.7983 39.2294 48.4216 39.3994 46.9749 39.636C44.8616 39.936 42.7149 40.2027 40.6016 40.676C40.3253 40.7633 40.0258 40.738 39.768 40.6057C39.5102 40.4734 39.3151 40.2447 39.2249 39.9694C39.1385 39.6939 39.1639 39.3956 39.2954 39.1387C39.427 38.8818 39.6543 38.6869 39.9283 38.596C41.9164 37.711 43.9569 36.9484 46.0383 36.3127Z" fill="#035A69"/>
</g>
<defs>
<clipPath id="clip0_2436_32441">
<rect width="80" height="80" fill="white" transform="matrix(-1 0 0 1 80 0)"/>
</clipPath>
</defs>
</svg>
