<svg width="138" height="97" viewBox="0 0 138 97" fill="none" xmlns="http://www.w3.org/2000/svg">
<path d="M1.26087 27.4424C1.32651 24.1387 5.15845 20.8123 9.90858 19.9945L123.971 0.357362C131.57 -0.950816 137.88 1.44258 137.88 5.73992V88.4787C137.88 92.8859 131.48 96.486 123.776 96.5139L8.47522 96.9317C3.68754 96.9491 -0.0660364 94.23 0.000880942 90.8618L1.26087 27.4424Z" fill="white"/>
<path d="M35.8883 64.0186L22.2053 64.9989C21.325 65.0619 20.52 64.6946 20.1113 63.9964C19.6731 63.1807 19.8517 62.1676 20.5747 61.4742L30.0694 51.977L23.3258 52.6364C21.499 52.815 20.065 51.5664 20.0934 49.9039L32.5218 48.6075C33.4422 48.5115 34.2911 48.8582 34.7259 49.5601C35.1943 50.3849 35.0069 51.4319 34.2415 52.1604L24.5868 61.7367L32.4668 61.1205C34.3836 60.9706 35.9138 62.2924 35.8883 64.0186ZM99.0578 41.385C96.5102 41.652 94.1974 42.7684 92.6318 44.3597C91.0936 43.1236 88.8381 42.4563 86.3848 42.7134C81.8761 43.1861 78.1904 46.6946 78.1586 50.3667L78.0666 60.9971C80.3679 60.8322 82.2443 59.1513 82.2598 57.2267L82.3184 49.9502C82.3327 48.1678 84.0098 46.4969 86.1904 46.2139C88.5163 45.916 90.4235 47.2576 90.4106 49.1366L90.3593 56.5933C90.3458 58.5472 92.2703 59.9795 94.6981 59.8056L94.7669 48.8056C94.7783 46.9815 96.5322 45.2676 98.8171 44.9727C101.255 44.6622 103.257 46.031 103.247 47.9546L103.209 55.5884C103.199 57.5888 105.22 59.0518 107.766 58.8694L107.815 47.6417C107.878 43.7592 103.866 40.881 99.0578 41.385ZM54.3038 54.5061C54.2475 59.1571 49.8775 63.2747 44.693 63.6434C39.5805 64.007 35.5932 60.6256 35.6595 56.1467C35.7257 51.6737 39.8489 47.5917 44.9165 47.0605C50.0908 46.518 54.3601 49.8613 54.3038 54.5061ZM50.5706 54.8346C50.6064 51.9967 48.0457 49.9633 44.8732 50.2751C41.7411 50.583 39.211 53.0644 39.1714 55.8377C39.1317 58.6132 41.6007 60.6598 44.7365 60.4162C47.9128 60.1695 50.5346 57.6748 50.5706 54.8346ZM76.1054 52.5876C76.0619 57.4399 71.319 61.7498 65.6796 62.1508C60.1234 62.546 55.78 59.0365 55.8354 54.3713C55.8908 49.7124 60.3539 45.4422 65.8601 44.865C71.4873 44.2751 76.1487 47.7421 76.1054 52.5876ZM72.0413 52.9452C72.0695 49.9856 69.2749 47.8766 65.8251 48.2157C62.4212 48.5503 59.6812 51.1464 59.6485 54.0358C59.6157 56.9275 62.3063 59.0514 65.7147 58.7866C69.1691 58.5183 72.013 55.9074 72.0413 52.9452Z" fill="#0B5CFF"/>
</svg>
