<svg width="299" height="60" viewBox="0 0 299 60" fill="none" xmlns="http://www.w3.org/2000/svg">
<path d="M14.975 4.05C12.7226 6.25153 10.9852 8.92414 9.88738 11.8762C8.78953 14.8283 8.35844 17.9867 8.625 21.125C9.5 32.125 19.9 41.1 29.325 41.1C38.075 41.1 41.525 33.45 40.675 28.25C40.3629 26.3429 39.5424 24.5552 38.3 23.075C39.875 23.925 41.4 25 42.825 26.325C46.625 29.85 48.925 34.4 49.275 39.075C50.1 49.4 42.45 60 29.65 60C25.425 60 20.95 58.925 17.2 57.15C7.05 52.35 0 42 0 30C0 18.925 6.025 9.25 14.975 4.05ZM30.35 0C34.575 0 39.05 1.075 42.8 2.85C47.9469 5.2781 52.2969 9.12004 55.3425 13.9274C58.388 18.7347 60.0034 24.3091 60 30C60 41.075 53.975 50.75 45.025 55.95C47.2774 53.7485 49.0148 51.0759 50.1126 48.1238C51.2105 45.1717 51.6416 42.0133 51.375 38.875C50.5 27.875 40.1 18.9 30.675 18.9C21.925 18.9 18.475 26.55 19.325 31.75C19.6444 33.6597 20.4736 35.4476 21.725 36.925C20.0836 36.0401 18.5628 34.9478 17.2 33.675C13.4 30.15 11.1 25.6 10.725 20.925C9.9 10.6 17.55 0 30.35 0Z" fill="url(#paint0_linear_2972_25997)"/>
<path d="M86.8125 47V13.1797H94.9922L104.602 37.4844H104.742L114.352 13.1797H122.531V47H116.227V24.125H112.945L120.023 14.1172L106.898 47H102.445L89.3203 14.1172L96.3984 24.125H93.1172V47H86.8125ZM138.048 47.5156C135.485 47.5156 133.282 46.9922 131.438 45.9453C129.595 44.8828 128.173 43.375 127.173 41.4219C126.188 39.4688 125.696 37.1562 125.696 34.4844V34.4609C125.696 31.7891 126.188 29.4766 127.173 27.5234C128.173 25.5547 129.571 24.0391 131.368 22.9766C133.181 21.8984 135.313 21.3594 137.767 21.3594C140.22 21.3594 142.337 21.8828 144.118 22.9297C145.915 23.9609 147.298 25.4219 148.267 27.3125C149.251 29.2031 149.743 31.4141 149.743 33.9453V36.0547H129.048V31.7422H146.509L143.251 35.7734V33.1484C143.251 31.6797 143.024 30.4531 142.571 29.4688C142.118 28.4688 141.485 27.7188 140.673 27.2188C139.876 26.7188 138.946 26.4688 137.884 26.4688C136.821 26.4688 135.876 26.7266 135.048 27.2422C134.235 27.7578 133.595 28.5156 133.126 29.5156C132.673 30.5 132.446 31.7109 132.446 33.1484V35.7969C132.446 37.1875 132.673 38.375 133.126 39.3594C133.595 40.3438 134.259 41.1016 135.118 41.6328C135.978 42.1484 137.001 42.4062 138.188 42.4062C139.126 42.4062 139.938 42.2578 140.626 41.9609C141.313 41.6641 141.876 41.2891 142.313 40.8359C142.751 40.3828 143.048 39.9219 143.204 39.4531L143.251 39.3125H149.532L149.462 39.5703C149.274 40.4922 148.907 41.4219 148.36 42.3594C147.813 43.2969 147.071 44.1562 146.134 44.9375C145.212 45.7188 144.079 46.3438 142.735 46.8125C141.407 47.2812 139.845 47.5156 138.048 47.5156ZM163.76 47.5156C161.197 47.5156 158.994 46.9922 157.15 45.9453C155.307 44.8828 153.885 43.375 152.885 41.4219C151.9 39.4688 151.408 37.1562 151.408 34.4844V34.4609C151.408 31.7891 151.9 29.4766 152.885 27.5234C153.885 25.5547 155.283 24.0391 157.08 22.9766C158.893 21.8984 161.025 21.3594 163.478 21.3594C165.932 21.3594 168.049 21.8828 169.83 22.9297C171.627 23.9609 173.01 25.4219 173.978 27.3125C174.963 29.2031 175.455 31.4141 175.455 33.9453V36.0547H154.76V31.7422H172.221L168.963 35.7734V33.1484C168.963 31.6797 168.736 30.4531 168.283 29.4688C167.83 28.4688 167.197 27.7188 166.385 27.2188C165.588 26.7188 164.658 26.4688 163.596 26.4688C162.533 26.4688 161.588 26.7266 160.76 27.2422C159.947 27.7578 159.307 28.5156 158.838 29.5156C158.385 30.5 158.158 31.7109 158.158 33.1484V35.7969C158.158 37.1875 158.385 38.375 158.838 39.3594C159.307 40.3438 159.971 41.1016 160.83 41.6328C161.689 42.1484 162.713 42.4062 163.9 42.4062C164.838 42.4062 165.65 42.2578 166.338 41.9609C167.025 41.6641 167.588 41.2891 168.025 40.8359C168.463 40.3828 168.76 39.9219 168.916 39.4531L168.963 39.3125H175.244L175.174 39.5703C174.986 40.4922 174.619 41.4219 174.072 42.3594C173.525 43.2969 172.783 44.1562 171.846 44.9375C170.924 45.7188 169.791 46.3438 168.447 46.8125C167.119 47.2812 165.557 47.5156 163.76 47.5156ZM188.018 47.5156C185.237 47.5156 183.175 46.9297 181.831 45.7578C180.487 44.5859 179.815 42.6562 179.815 39.9688V27.0312H176.323V21.875H179.815V15.7344H186.729V21.875H191.323V27.0312H186.729V39.2188C186.729 40.3906 186.987 41.2109 187.503 41.6797C188.034 42.1328 188.815 42.3594 189.847 42.3594C190.159 42.3594 190.433 42.3516 190.667 42.3359C190.901 42.3047 191.12 42.2734 191.323 42.2422V47.2578C190.948 47.3203 190.479 47.375 189.917 47.4219C189.37 47.4844 188.737 47.5156 188.018 47.5156Z" fill="#0F172A"/>
<path d="M194.723 47V13.1797H202.902L212.512 37.4844H212.652L222.262 13.1797H230.441V47H224.137V24.125H220.855L227.933 14.1172L214.808 47H210.355L197.23 14.1172L204.308 24.125H201.027V47H194.723ZM234.661 47V21.875H241.505V47H234.661ZM238.083 18.6406C237.052 18.6406 236.184 18.2891 235.481 17.5859C234.778 16.8828 234.427 16.0469 234.427 15.0781C234.427 14.0938 234.778 13.2578 235.481 12.5703C236.184 11.8672 237.052 11.5156 238.083 11.5156C239.114 11.5156 239.981 11.8672 240.684 12.5703C241.387 13.2578 241.739 14.0938 241.739 15.0781C241.739 16.0469 241.387 16.8828 240.684 17.5859C239.981 18.2891 239.114 18.6406 238.083 18.6406ZM245.138 47V21.875H251.982V26H252.123C252.779 24.5625 253.748 23.4297 255.029 22.6016C256.31 21.7734 257.896 21.3594 259.787 21.3594C262.553 21.3594 264.685 22.1953 266.185 23.8672C267.701 25.5234 268.459 27.8281 268.459 30.7812V47H261.615V32.1875C261.615 30.5469 261.224 29.2812 260.443 28.3906C259.678 27.4844 258.529 27.0312 256.998 27.0312C255.982 27.0312 255.099 27.2656 254.349 27.7344C253.599 28.1875 253.013 28.8281 252.592 29.6562C252.185 30.4844 251.982 31.4531 251.982 32.5625V47H245.138ZM281.139 47.5156C279.03 47.5156 277.21 46.9922 275.678 45.9453C274.147 44.8984 272.967 43.3984 272.139 41.4453C271.327 39.4922 270.921 37.1562 270.921 34.4375V34.4141C270.921 31.6797 271.335 29.3438 272.163 27.4062C272.991 25.4531 274.163 23.9609 275.678 22.9297C277.21 21.8828 279.03 21.3594 281.139 21.3594C282.327 21.3594 283.421 21.5547 284.421 21.9453C285.421 22.3359 286.296 22.8984 287.046 23.6328C287.811 24.3516 288.421 25.2188 288.874 26.2344H289.014V13.1797H295.858V47H289.014V42.7109H288.874C288.436 43.7109 287.842 44.5703 287.092 45.2891C286.342 45.9922 285.467 46.5391 284.467 46.9297C283.467 47.3203 282.358 47.5156 281.139 47.5156ZM283.436 41.8438C284.546 41.8438 285.522 41.5469 286.366 40.9531C287.21 40.3438 287.866 39.4844 288.335 38.375C288.803 37.2656 289.038 35.9531 289.038 34.4375V34.4141C289.038 32.8984 288.796 31.5938 288.311 30.5C287.842 29.3906 287.186 28.5391 286.342 27.9453C285.514 27.3359 284.546 27.0312 283.436 27.0312C282.296 27.0312 281.311 27.3281 280.483 27.9219C279.655 28.5156 279.014 29.3672 278.561 30.4766C278.108 31.5703 277.882 32.8828 277.882 34.4141V34.4375C277.882 35.9531 278.1 37.2656 278.538 38.375C278.991 39.4844 279.632 40.3438 280.46 40.9531C281.303 41.5469 282.296 41.8438 283.436 41.8438Z" fill="#035A69"/>
<defs>
<linearGradient id="paint0_linear_2972_25997" x1="30" y1="0" x2="30" y2="60" gradientUnits="userSpaceOnUse">
<stop stop-color="#4F46E5"/>
<stop offset="1" stop-color="#035A69"/>
</linearGradient>
</defs>
</svg>
